{"glyphs":{"0":{"ha":917,"x_min":88,"x_max":907,"o":"m 88 257 q 124 501 88 372 q 225 741 161 629 q 390 926 289 853 q 606 1000 490 1000 q 825 899 743 1000 q 907 614 907 797 q 867 357 907 488 q 758 120 826 226 q 589 -53 689 14 q 379 -121 489 -121 q 163 -15 238 -121 q 88 257 88 92 m 226 233 q 272 24 226 101 q 399 -54 318 -54 q 589 66 499 -54 q 730 352 679 186 q 781 668 781 518 q 738 869 781 794 q 606 943 696 943 q 442 868 518 943 q 322 681 367 793 q 251 450 276 568 q 226 233 226 332 z "},"1":{"ha":544,"x_min":-47,"x_max":489,"o":"m -47 -43 q -12 -45 -35 -43 q 25 -47 10 -47 q 169 -33 72 -47 q 240 204 206 49 q 308 544 275 360 q 353 783 340 728 q 197 704 233 704 q 157 761 157 704 q 297 853 203 783 q 471 999 392 924 q 489 944 489 982 q 476 872 489 921 q 458 794 463 822 q 414 523 432 625 q 353 260 396 421 q 260 -21 311 99 q 308 -18 293 -18 q 457 -117 435 -18 q 329 -108 389 -108 q 201 -115 285 -108 q 100 -121 118 -121 q -47 -43 14 -121 z "},"2":{"ha":832,"x_min":-8,"x_max":768,"o":"m -8 10 q 108 83 -8 83 q 260 65 165 83 q 513 387 397 185 q 628 751 628 589 q 587 894 628 846 q 478 943 546 943 q 340 868 389 943 q 292 696 292 793 q 318 575 292 636 l 292 578 q 185 711 185 589 q 273 913 185 826 q 493 1000 361 1000 q 680 924 614 1000 q 746 726 746 847 q 629 369 746 563 q 353 46 513 175 q 639 0 560 0 q 697 9 672 0 q 768 43 721 18 q 708 -82 746 -43 q 608 -121 669 -121 q 528 -109 576 -121 q 449 -86 481 -97 q 351 -50 418 -75 l 267 -18 q 101 -75 171 -75 q 22 -51 53 -75 q -8 10 -8 -28 m 54 6 q 99 -18 57 -18 q 183 11 132 -18 q 96 28 131 28 q 54 6 54 28 z "},"3":{"ha":753,"x_min":26,"x_max":700,"o":"m 26 86 q 59 193 26 146 q 150 240 92 240 q 199 235 169 240 q 157 176 174 214 q 140 100 140 138 q 183 -9 140 39 q 290 -57 226 -57 q 442 25 375 -57 q 510 228 510 107 q 466 388 510 317 q 322 485 422 458 q 503 631 433 532 q 572 821 572 731 q 536 913 572 883 q 447 943 500 943 q 340 907 386 943 q 293 811 293 871 q 321 715 293 767 q 292 682 313 697 q 253 667 272 667 q 206 705 224 667 q 188 789 188 743 q 271 942 188 883 q 464 1000 354 1000 q 630 947 560 1000 q 700 804 700 894 q 637 627 700 717 q 478 501 574 538 q 627 392 579 467 q 675 235 675 317 q 561 -11 675 99 q 279 -121 447 -121 q 90 -58 153 -121 q 26 86 26 6 z "},"4":{"ha":706,"x_min":4,"x_max":706,"o":"m 4 300 q 15 344 4 322 q 38 378 26 365 q 74 413 49 390 q 629 1000 478 789 q 664 951 664 983 q 636 875 664 918 q 544 411 604 744 q 706 426 650 411 q 528 318 625 318 q 474 -121 474 11 q 377 -97 411 -117 q 343 -46 343 -76 q 404 319 343 -24 q 307 325 354 325 q 139 317 257 325 q 4 300 21 310 m 165 414 q 290 418 219 418 q 425 415 342 418 q 499 721 468 619 l 340 578 q 165 414 217 465 z "},"5":{"ha":713,"x_min":13,"x_max":710,"o":"m 13 85 q 44 193 13 146 q 135 240 76 240 q 185 235 156 240 q 126 96 126 188 q 163 -12 126 33 q 269 -57 199 -57 q 435 34 372 -57 q 499 238 499 125 q 451 389 499 329 q 310 449 404 449 q 164 431 258 449 q 203 611 174 499 q 268 849 232 724 l 310 993 q 469 974 389 974 q 700 1001 554 974 q 710 949 710 963 q 654 867 710 893 q 524 842 599 842 q 433 850 485 842 q 365 858 381 858 q 319 785 344 858 q 271 612 294 713 q 242 496 247 511 q 356 507 301 507 q 578 433 501 507 q 656 235 656 358 q 548 -18 656 85 q 271 -121 440 -121 q 75 -59 138 -121 q 13 85 13 3 z "},"6":{"ha":822,"x_min":81,"x_max":779,"o":"m 81 233 q 119 481 81 350 q 226 730 158 613 q 401 924 293 847 q 631 1000 508 1000 q 738 978 697 1000 q 779 911 779 956 q 696 833 779 856 q 699 879 699 861 q 683 931 699 913 q 626 949 668 949 q 469 872 544 949 q 342 688 393 796 q 261 454 292 581 q 492 529 360 529 q 690 459 611 529 q 769 251 769 389 q 665 -15 769 92 q 392 -121 560 -121 q 157 -24 233 -121 q 81 233 81 72 m 228 201 q 235 118 228 158 q 260 36 243 78 q 314 -31 278 -6 q 399 -57 350 -57 q 562 39 499 -57 q 625 257 625 135 q 574 411 625 360 q 439 463 524 463 q 279 388 331 463 q 228 201 228 314 z "},"7":{"ha":610,"x_min":94,"x_max":750,"o":"m 94 392 q 115 448 94 425 q 172 482 135 471 q 249 497 210 493 q 343 501 289 501 q 439 660 367 538 l 563 864 q 457 860 529 864 q 353 856 385 856 q 188 931 188 856 q 211 999 188 960 q 481 971 368 971 q 750 1007 638 971 q 438 496 567 771 q 546 490 486 490 q 636 500 600 490 q 500 406 565 406 l 396 406 q 276 33 276 133 q 299 -25 276 -10 q 238 -97 275 -74 q 174 -121 201 -121 q 132 -102 150 -121 q 114 -49 114 -83 q 292 406 114 50 q 94 392 192 403 z "},"8":{"ha":779,"x_min":60,"x_max":701,"o":"m 60 117 q 74 192 60 156 q 106 256 88 229 q 161 316 125 283 q 222 367 197 349 q 292 419 246 386 q 360 468 339 451 q 279 556 308 519 q 224 649 250 592 q 197 767 197 707 q 278 940 197 882 q 469 999 358 999 q 638 945 574 999 q 701 790 701 892 q 651 626 701 699 q 506 483 600 554 q 600 385 568 421 q 661 292 632 350 q 690 174 690 233 q 582 -38 690 44 q 328 -121 474 -121 q 125 -48 190 -121 q 60 117 60 25 m 167 118 q 219 -2 167 43 q 340 -47 271 -47 q 487 14 421 -47 q 553 167 553 75 q 517 289 553 233 q 413 415 482 344 q 320 349 353 374 q 246 284 288 324 q 185 203 204 244 q 167 118 167 163 m 328 783 q 454 538 328 671 q 600 789 600 660 q 564 901 600 861 q 472 942 528 942 q 373 902 418 942 q 328 783 328 863 z "},"9":{"ha":831,"x_min":133,"x_max":819,"o":"m 133 639 q 233 899 133 799 q 496 1000 332 1000 q 741 892 663 1000 q 819 613 819 783 q 797 417 819 518 q 730 219 775 315 q 624 48 685 124 q 478 -74 563 -28 q 299 -121 393 -121 q 188 -97 231 -121 q 146 -29 146 -74 q 226 50 146 26 q 301 -69 226 -69 q 456 6 383 -69 q 574 190 528 82 q 646 425 619 299 q 418 351 550 351 q 214 426 294 351 q 133 639 133 501 m 276 635 q 329 473 276 528 q 474 418 382 418 q 622 481 572 418 q 671 654 671 543 q 662 747 671 701 q 634 836 653 792 q 578 908 615 881 q 490 936 540 936 q 335 845 394 936 q 276 635 276 754 z "}," ":{"ha":360,"x_min":0,"x_max":0,"o":""},"!":{"ha":410,"x_min":0,"x_max":513,"o":"m 0 33 q 28 78 0 58 q 90 99 57 99 q 138 56 138 99 q 112 8 138 31 q 56 -14 86 -14 q 0 33 0 -14 m 85 150 q 160 413 85 218 l 214 550 l 267 681 q 324 808 300 763 q 376 904 347 854 q 428 977 404 954 q 474 1000 453 1000 q 501 988 489 1000 q 513 958 513 975 q 349 583 513 903 q 101 144 185 263 l 85 150 z "},"\"":{"ha":375,"x_min":210,"x_max":499,"o":"m 210 861 q 238 954 210 906 q 297 1003 265 1003 q 328 988 315 1003 q 340 949 340 974 q 294 891 311 921 q 249 800 276 861 q 210 861 210 819 m 369 857 q 396 953 369 903 q 456 1003 422 1003 q 487 988 475 1003 q 499 949 499 974 q 478 928 488 939 q 463 908 469 917 q 449 883 457 900 l 436 860 l 421 831 q 407 800 410 810 q 369 857 369 819 z "},"#":{"ha":1000,"x_min":26,"x_max":1007,"o":"m 26 208 q 340 324 32 317 l 346 356 q 353 390 350 381 q 168 378 331 390 l 76 371 q 375 485 83 478 q 422 726 393 572 q 461 931 450 879 q 469 960 465 949 q 493 983 474 971 q 546 1003 513 996 q 528 906 540 978 l 492 708 l 451 488 q 621 482 556 485 q 675 758 644 594 q 707 931 706 922 q 715 960 710 949 q 740 983 721 971 q 793 1003 760 996 q 772 901 786 976 l 738 701 q 696 478 715 578 q 793 473 728 476 q 913 467 858 469 q 1007 464 967 464 q 938 419 972 435 q 883 402 903 404 q 833 400 864 400 q 751 399 801 400 q 682 399 701 399 q 674 358 681 389 q 665 314 667 328 q 954 301 915 301 q 885 257 919 272 q 833 240 851 242 q 783 238 814 238 q 650 236 693 238 q 553 -122 601 -18 q 406 -225 504 -225 q 567 232 485 -131 l 401 232 q 366 67 379 125 q 331 -57 353 8 q 288 -153 310 -122 q 234 -204 267 -183 q 158 -225 201 -225 q 319 229 236 -132 q 118 215 310 229 l 26 208 m 419 324 q 586 319 506 324 l 603 397 q 433 394 486 397 l 419 324 z "},"$":{"ha":785,"x_min":18,"x_max":744,"o":"m 18 136 q 84 276 18 226 q 232 325 150 325 q 142 133 142 233 q 185 33 142 71 q 306 -15 228 -6 q 397 361 346 128 q 322 404 349 388 q 261 451 296 421 q 210 517 226 481 q 194 599 194 553 q 284 799 194 713 q 506 907 374 886 q 531 967 506 939 q 597 1000 557 994 q 578 911 581 925 q 744 760 744 907 q 674 529 744 646 q 626 554 643 535 q 608 597 608 574 q 633 694 608 619 q 658 797 658 768 q 568 858 658 857 l 493 449 q 571 406 542 424 q 635 359 600 389 q 686 290 669 329 q 703 203 703 251 q 609 8 703 82 q 376 -79 515 -67 q 208 -225 321 -225 q 283 -79 251 -169 q 94 -15 169 -69 q 18 136 18 40 m 303 632 q 425 485 303 547 q 494 850 483 788 q 356 765 408 829 q 303 632 303 701 m 397 -14 q 535 44 485 -3 q 585 161 585 92 q 555 251 585 214 q 469 322 525 289 q 397 -14 419 58 z "},"%":{"ha":1028,"x_min":122,"x_max":976,"o":"m 122 -121 q 445 357 224 -22 q 742 932 667 736 q 792 977 750 954 q 869 1000 833 1000 q 681 606 853 932 q 417 135 510 279 q 266 -56 335 8 q 122 -121 197 -121 m 151 629 q 212 832 151 733 q 364 931 272 931 q 461 889 424 931 q 499 779 499 847 q 436 574 499 678 q 282 471 374 471 q 185 517 219 471 q 151 629 151 563 m 250 626 q 290 543 250 543 q 371 624 336 543 q 406 786 406 706 q 367 861 406 861 q 283 781 315 861 q 250 626 250 701 m 631 156 q 690 359 631 261 q 843 457 750 457 q 940 415 903 457 q 976 306 976 374 q 951 174 976 243 q 875 51 926 104 q 761 -1 824 -1 q 664 44 697 -1 q 631 156 631 89 m 728 150 q 768 71 728 71 q 849 151 814 71 q 885 313 885 232 q 844 389 885 389 q 760 308 792 389 q 728 150 728 226 z "},"&":{"ha":938,"x_min":24,"x_max":968,"o":"m 24 138 q 125 372 24 265 q 378 499 226 478 q 278 707 278 588 q 363 911 278 824 q 581 999 449 999 q 708 959 664 999 q 751 844 751 919 q 714 695 751 765 q 636 625 676 625 q 569 682 601 625 q 689 864 689 779 q 665 928 689 904 q 596 951 642 951 q 454 877 506 951 q 403 696 403 803 q 504 471 403 550 q 268 348 360 449 q 176 138 176 247 q 222 4 176 63 q 357 -54 267 -54 q 622 72 503 -54 q 763 358 742 199 q 574 331 717 356 q 731 449 575 449 q 849 437 775 449 q 968 425 922 425 q 932 372 949 383 q 894 361 915 361 q 852 360 876 361 q 817 360 828 360 q 651 24 797 168 q 321 -121 504 -121 q 106 -46 189 -121 q 24 138 24 29 z "},"'":{"ha":217,"x_min":210,"x_max":342,"o":"m 210 861 q 238 954 210 906 q 297 1003 265 1003 q 328 989 314 1003 q 342 957 342 975 l 340 949 q 263 831 299 908 l 249 800 q 210 861 210 819 z "},"(":{"ha":410,"x_min":107,"x_max":546,"o":"m 107 267 q 156 565 107 422 q 274 800 204 708 q 418 946 344 892 q 546 1000 492 1000 q 294 667 378 869 q 210 251 210 465 q 286 -81 210 33 q 247 -121 272 -108 q 148 22 189 -89 q 107 267 107 132 z "},")":{"ha":438,"x_min":-47,"x_max":410,"o":"m -47 -74 q 215 215 114 33 q 317 631 317 397 q 291 824 317 735 q 193 1007 265 914 q 341 875 272 986 q 410 601 410 764 q 378 367 410 483 q 297 166 346 251 q 192 14 249 81 q 85 -87 136 -53 q 0 -121 35 -121 q -47 -74 -19 -121 z "},"*":{"ha":578,"x_min":176,"x_max":660,"o":"m 176 818 q 336 825 300 822 q 274 967 274 918 q 288 1000 274 985 q 303 1018 303 1015 q 340 951 318 992 q 374 890 361 911 q 400 849 386 868 q 547 1015 447 993 q 499 907 533 975 q 458 826 464 839 q 660 771 590 826 l 472 756 q 506 706 496 724 q 528 650 517 689 q 542 561 540 611 q 404 738 488 619 q 324 619 361 660 q 238 576 288 579 q 274 633 257 604 q 310 701 290 661 q 338 754 331 740 q 228 767 269 754 q 176 818 188 779 z "},"+":{"ha":613,"x_min":18,"x_max":567,"o":"m 18 189 q 246 276 46 272 l 246 333 q 300 494 246 413 q 319 276 317 361 q 567 263 417 275 q 392 206 486 206 l 321 206 q 302 51 319 107 q 238 -10 285 -4 q 249 206 249 81 q 18 189 133 206 z "},",":{"ha":300,"x_min":7,"x_max":139,"o":"m 7 -61 q 35 33 7 -17 q 94 82 63 82 q 126 68 113 82 q 139 36 139 54 q 118 10 128 24 q 103 -11 108 -3 q 87 -37 97 -19 q 74 -60 76 -56 q 60 -92 72 -65 q 44 -122 47 -118 q 7 -61 7 -100 z "},"-":{"ha":704,"x_min":76,"x_max":597,"o":"m 76 197 q 114 245 85 226 q 182 272 143 264 q 247 282 221 279 q 297 285 272 285 q 597 275 422 285 q 534 222 583 243 q 428 200 485 200 q 353 204 413 200 q 254 208 293 208 q 76 197 160 208 z "},".":{"ha":336,"x_min":39,"x_max":172,"o":"m 39 39 q 69 88 39 63 q 126 113 99 113 q 172 69 172 113 q 152 17 172 47 q 100 -14 132 -14 q 54 2 69 -14 q 39 39 39 18 z "},"/":{"ha":493,"x_min":-87,"x_max":604,"o":"m -87 -225 q 457 932 64 -79 q 510 977 465 956 q 604 999 554 999 q 194 33 569 907 q 65 -156 143 -87 q -87 -225 -12 -225 z "},":":{"ha":349,"x_min":44,"x_max":258,"o":"m 44 32 q 73 77 44 57 q 135 97 101 97 q 181 54 181 97 q 156 8 181 31 q 100 -14 131 -14 q 61 -2 78 -14 q 44 32 44 10 m 122 363 q 151 408 122 388 q 213 428 181 428 q 258 385 258 428 q 233 339 258 361 q 178 317 208 317 q 139 328 156 317 q 122 363 122 340 z "},";":{"ha":347,"x_min":32,"x_max":260,"o":"m 32 -60 q 61 40 32 -12 q 125 93 90 93 q 158 78 143 93 q 174 46 172 64 q 71 -122 119 -15 q 32 -60 32 -101 m 122 365 q 150 410 122 390 q 211 431 178 431 q 260 388 260 431 q 234 341 260 364 q 178 318 208 318 q 122 365 122 318 z "},"<":{"ha":456,"x_min":42,"x_max":339,"o":"m 42 229 q 189 317 115 256 q 313 449 263 378 q 326 426 319 443 q 332 399 332 410 q 111 204 332 317 q 339 97 192 150 q 281 61 306 61 q 142 123 229 61 q 42 229 56 185 z "},"=":{"ha":718,"x_min":86,"x_max":606,"o":"m 86 286 q 346 354 111 354 q 603 339 465 354 q 433 283 521 283 l 299 283 q 97 269 186 283 l 86 286 m 89 164 q 349 232 117 232 q 606 217 468 232 q 436 161 525 161 l 303 161 q 101 147 190 161 l 89 164 z "},">":{"ha":468,"x_min":92,"x_max":392,"o":"m 92 399 q 107 444 92 421 q 236 322 154 385 q 392 231 318 258 q 297 124 381 186 q 161 61 213 61 q 100 97 133 61 q 322 204 240 147 q 92 399 94 317 z "},"?":{"ha":642,"x_min":164,"x_max":679,"o":"m 164 690 q 249 907 164 814 q 471 1000 335 1000 q 623 950 567 1000 q 679 808 679 900 q 657 701 679 751 q 600 610 635 650 l 529 531 q 458 438 493 490 q 406 329 422 386 q 389 249 397 300 q 368 165 381 197 q 321 198 332 183 q 310 243 310 213 q 337 360 310 303 q 403 464 364 417 l 481 560 q 547 667 519 607 q 574 790 574 726 q 544 904 574 864 q 467 944 514 944 q 327 861 392 944 q 263 668 263 778 q 278 574 263 624 q 189 613 214 583 q 164 690 164 642 m 253 32 q 282 78 253 58 q 343 99 311 99 q 392 58 392 99 q 366 8 392 31 q 308 -14 340 -14 q 269 -2 285 -14 q 253 32 253 10 z "},"@":{"ha":851,"x_min":18,"x_max":794,"o":"m 18 128 q 147 420 18 292 q 476 549 275 549 q 712 473 629 549 q 794 292 794 397 q 719 97 794 186 q 543 7 644 7 q 439 110 439 7 q 261 -11 336 -11 q 195 15 222 -11 q 168 89 168 42 q 215 234 168 154 q 338 372 261 314 q 488 431 414 431 q 569 405 538 431 q 601 338 601 379 q 546 283 601 290 q 581 250 581 271 q 549 181 581 236 q 517 99 517 125 q 558 64 517 64 q 676 133 622 64 q 731 282 731 201 q 667 428 731 365 q 478 490 603 490 q 198 377 308 490 q 88 124 88 264 q 151 -47 88 24 q 350 -118 215 -118 q 653 4 518 -118 l 672 -21 q 336 -168 538 -168 q 99 -83 181 -168 q 18 128 18 3 m 260 85 q 281 49 260 49 q 427 158 322 49 q 532 324 532 268 q 531 355 532 343 q 519 377 529 367 q 489 388 508 388 q 337 276 414 388 q 260 85 260 164 z "},"A":{"ha":876,"x_min":0,"x_max":869,"o":"m 0 -35 q 204 382 0 68 q 0 388 121 388 q 161 478 33 478 q 264 469 189 478 q 554 849 419 694 q 733 1003 689 1003 q 828 949 769 1003 q 697 616 782 914 q 611 150 611 318 q 660 40 611 40 q 844 247 735 40 l 869 221 q 756 31 825 103 q 611 -40 686 -40 q 489 175 489 -40 q 507 347 489 243 q 308 374 436 358 q 64 -121 179 144 q 0 -35 0 -87 m 353 453 q 445 432 385 446 q 521 415 506 418 q 668 881 571 654 q 353 453 544 783 z "},"B":{"ha":903,"x_min":57,"x_max":857,"o":"m 57 -1 q 72 13 57 13 q 91 9 76 13 q 136 3 106 6 q 208 0 167 0 q 609 93 447 0 q 771 308 771 186 q 414 474 771 474 q 411 474 413 474 q 358 473 393 474 q 308 472 324 472 q 247 248 286 397 q 188 33 207 99 q 115 56 146 33 q 85 110 85 78 q 99 174 85 135 l 104 190 q 132 275 107 197 l 182 425 l 242 594 q 314 781 276 690 q 386 939 351 872 q 297 910 338 928 q 235 880 257 892 q 206 868 214 868 q 171 888 192 868 q 150 922 150 908 q 253 962 214 949 q 360 988 293 975 q 500 1000 428 1000 q 588 996 546 1000 q 679 977 629 992 q 765 939 729 963 q 824 873 800 915 q 849 774 849 831 q 558 511 849 581 q 786 426 715 490 q 857 288 857 363 q 791 110 857 192 q 626 -19 725 29 q 423 -94 528 -68 q 229 -121 318 -121 q 57 -1 58 -121 m 322 525 q 476 543 406 528 q 610 588 547 558 q 708 667 672 617 q 743 785 743 717 q 482 951 743 951 q 322 525 404 801 z "},"C":{"ha":792,"x_min":44,"x_max":801,"o":"m 44 222 q 132 583 44 401 q 358 882 219 765 q 635 999 496 999 q 779 872 779 999 q 724 676 779 782 q 608 571 668 571 q 551 614 574 571 q 653 753 604 672 q 703 883 703 833 q 640 938 703 938 q 433 819 543 938 q 251 529 324 701 q 179 210 179 357 q 229 22 179 99 q 381 -54 279 -54 q 598 33 489 -54 q 765 243 707 121 l 801 219 q 605 -26 722 69 q 347 -121 488 -121 q 122 -20 199 -121 q 44 222 44 81 z "},"D":{"ha":954,"x_min":97,"x_max":953,"o":"m 97 -51 q 201 340 108 38 q 335 746 294 642 q 356 796 344 771 q 396 851 368 821 q 453 881 424 881 q 506 861 476 881 q 338 407 422 671 q 210 -61 254 143 q 279 -69 233 -69 q 491 -1 388 -69 q 667 169 594 67 q 785 394 740 272 q 829 625 829 517 q 749 865 829 786 q 533 943 668 943 q 307 872 397 943 q 217 693 217 800 q 229 626 217 656 q 118 715 118 626 q 256 909 118 818 q 579 1000 393 1000 q 862 893 771 1000 q 953 611 953 786 q 893 330 953 467 q 737 95 833 193 q 515 -62 640 -3 q 265 -121 390 -121 q 97 -51 150 -121 z "},"E":{"ha":740,"x_min":-6,"x_max":750,"o":"m -6 140 q 97 372 -6 265 q 349 499 199 478 q 249 708 249 586 q 334 911 249 824 q 550 999 419 999 q 681 958 635 999 q 726 839 726 917 q 687 692 726 760 q 607 625 647 625 q 540 682 572 625 q 663 868 663 782 q 635 931 663 908 q 563 953 608 953 q 423 876 474 953 q 372 696 372 799 q 475 471 372 550 q 239 348 331 449 q 147 138 147 247 q 192 2 147 63 q 328 -58 236 -58 q 545 31 438 -58 q 713 243 653 119 l 750 219 q 550 -28 668 65 q 290 -121 432 -121 q 77 -46 160 -121 q -6 140 -6 29 z "},"F":{"ha":725,"x_min":101,"x_max":929,"o":"m 101 414 q 306 529 111 524 q 457 899 390 763 q 407 901 435 901 q 240 865 286 901 q 194 750 194 828 q 222 625 194 693 q 101 746 101 644 q 217 923 101 853 q 504 993 332 993 q 652 983 556 993 q 789 974 749 974 q 929 994 853 974 q 823 897 865 924 q 738 871 781 871 q 647 881 715 871 q 538 893 578 890 q 413 528 500 804 q 532 516 446 525 q 672 506 618 507 q 595 452 640 463 q 386 439 550 442 l 329 243 q 261 -121 261 7 q 167 -88 192 -117 q 142 -8 142 -60 q 271 432 142 129 q 101 414 136 419 z "},"G":{"ha":813,"x_min":44,"x_max":796,"o":"m 44 228 q 97 498 44 358 q 232 747 150 638 q 421 928 314 857 q 631 999 528 999 q 756 952 715 999 q 796 835 796 906 q 757 692 796 758 q 665 625 718 625 q 607 671 631 625 q 679 760 640 694 q 718 872 718 825 q 643 938 718 938 q 431 818 542 938 q 249 528 321 699 q 178 213 178 357 q 231 18 178 90 q 364 -54 285 -54 q 549 71 471 -54 q 640 342 628 196 q 492 356 572 356 q 400 353 467 356 q 511 447 424 447 q 650 417 558 447 q 767 381 742 386 q 690 128 706 192 q 674 1 674 65 q 676 -62 674 -19 q 678 -129 678 -106 q 583 -12 583 -118 q 585 15 583 6 q 331 -121 472 -121 q 126 -27 208 -121 q 44 228 44 67 z "},"H":{"ha":921,"x_min":100,"x_max":939,"o":"m 100 -121 q 244 425 131 76 q 154 417 168 417 q 275 519 154 494 l 390 856 q 407 922 407 906 q 389 942 407 942 q 283 856 336 942 q 229 701 229 769 q 243 639 229 679 q 133 729 133 639 q 234 910 133 821 q 425 1000 335 1000 q 503 925 503 1000 q 492 864 503 900 l 390 531 q 460 532 413 532 q 703 521 585 532 q 839 924 786 801 q 939 1001 872 1001 q 793 514 865 800 q 848 512 804 514 q 914 510 892 510 q 776 446 850 446 q 696 -47 696 108 q 703 -121 696 -83 q 606 -87 632 -114 q 581 8 581 -60 q 681 444 581 128 q 360 435 454 443 q 350 402 358 431 q 306 261 342 374 l 217 -26 q 167 -97 203 -72 q 100 -121 132 -121 z "},"I":{"ha":699,"x_min":-25,"x_max":835,"o":"m -25 -122 q -2 -52 -21 -79 q 53 -12 17 -25 q 124 4 89 0 q 214 8 160 8 q 353 490 271 131 q 453 901 435 849 q 124 868 281 899 q 210 968 138 938 q 432 999 283 999 q 835 968 599 999 q 674 903 767 903 q 524 901 568 903 l 515 860 q 465 580 513 843 q 394 228 417 317 q 294 6 353 61 q 425 -7 313 4 q 608 -19 538 -18 q 424 -97 526 -97 q 421 -97 422 -97 q 152 -101 228 -97 q -25 -122 76 -106 z "},"J":{"ha":611,"x_min":-25,"x_max":767,"o":"m -25 68 q 6 233 -25 160 q 89 307 36 307 q 143 292 108 307 q 90 68 90 164 q 113 -19 90 13 q 176 -51 136 -51 q 239 -21 211 -51 q 294 85 267 10 q 403 478 342 219 q 494 908 464 736 q 197 876 325 904 q 266 969 207 942 q 447 997 325 997 q 767 967 583 997 q 640 910 732 910 q 594 909 624 910 q 560 908 565 908 q 578 854 578 885 q 517 513 576 781 q 386 88 458 246 q 144 -119 293 -119 q -25 68 -25 -119 z "},"K":{"ha":885,"x_min":60,"x_max":896,"o":"m 60 -96 q 119 56 89 -33 l 229 371 l 400 856 q 417 915 417 906 q 389 942 417 942 q 276 856 328 942 q 224 703 224 771 q 238 639 224 671 q 126 729 126 639 q 228 910 126 819 q 419 1000 329 1000 q 496 919 496 1000 q 486 864 496 893 l 383 531 q 479 601 400 540 q 868 1004 731 796 q 896 929 896 978 q 383 444 896 772 q 500 270 457 331 q 631 119 543 210 q 839 -62 719 29 q 801 -103 826 -86 q 753 -121 776 -121 q 553 44 679 -121 q 336 382 428 208 l 210 -26 q 187 -65 203 -50 q 147 -87 171 -81 q 104 -94 122 -93 q 60 -96 86 -96 z "},"L":{"ha":847,"x_min":-89,"x_max":843,"o":"m -89 56 q 25 125 -89 125 q 200 97 93 125 q 246 196 222 136 q 285 301 269 256 l 326 431 q 365 547 354 515 q 259 611 297 569 q 221 699 221 653 q 253 781 221 743 q 338 818 286 818 q 310 724 310 782 q 382 596 310 638 q 439 749 411 685 q 504 875 467 814 q 588 968 542 936 q 689 1000 635 1000 q 795 965 747 1000 q 843 850 843 929 q 822 745 843 799 q 758 642 800 692 q 642 560 717 592 q 474 528 568 528 q 283 75 367 203 q 651 -6 553 -6 q 774 25 711 -6 q 607 -121 721 -121 q 543 -114 578 -121 q 464 -91 508 -107 q 390 -63 419 -75 q 305 -27 360 -51 q 229 6 250 -3 q 68 -74 154 -74 q -44 -31 0 -74 q -89 56 -89 11 m -39 38 q -11 -5 -39 13 q 54 -22 17 -22 q 108 -9 86 -22 q 157 33 129 4 q 11 69 58 69 q -39 38 -39 69 m 489 574 q 626 637 564 579 q 717 762 688 694 q 746 883 746 829 q 700 946 746 946 q 643 918 671 946 q 588 833 615 890 q 539 719 560 775 q 489 574 518 664 z "},"M":{"ha":1119,"x_min":-7,"x_max":1100,"o":"m -7 -121 q 53 14 1 -96 l 219 375 l 439 853 q 451 899 451 881 q 411 929 451 929 q 288 860 332 929 q 244 706 244 790 q 250 639 244 676 q 178 678 204 639 q 151 765 151 718 q 244 926 151 853 q 438 1000 336 1000 q 560 926 519 1000 q 600 656 600 851 q 587 383 600 556 q 574 163 574 211 q 759 574 633 342 q 963 922 885 807 q 1000 970 985 957 q 1039 983 1015 983 q 1100 968 1058 983 q 986 534 1054 869 q 918 14 918 199 q 919 -19 918 -4 q 921 -42 919 -33 q 926 -64 922 -51 l 931 -81 q 938 -100 932 -85 l 946 -121 q 831 -82 858 -121 q 803 60 803 -43 q 833 354 803 199 q 921 735 863 510 q 729 381 833 610 q 575 4 625 151 l 565 1 q 546 -3 556 -3 q 485 50 500 -3 q 471 218 471 103 q 476 460 471 289 q 482 711 482 631 q 481 753 482 725 q 481 793 481 781 l 394 590 l 318 413 l 257 265 q 203 140 224 188 l 156 44 q 113 -31 131 -4 q 74 -80 94 -57 q 33 -112 53 -103 q -7 -121 14 -121 z "},"N":{"ha":936,"x_min":78,"x_max":982,"o":"m 78 -121 l 372 856 q 382 910 382 894 q 364 929 382 929 q 261 850 308 929 q 214 704 214 771 q 228 639 214 671 q 117 729 117 639 q 218 910 117 819 q 404 1000 319 1000 q 448 992 428 1000 q 484 963 468 983 q 513 924 500 943 q 536 867 525 904 q 554 804 547 831 q 570 728 561 778 q 583 650 579 679 q 596 565 588 621 q 660 158 639 267 q 710 369 676 226 l 765 606 q 817 792 788 696 q 869 928 846 888 q 982 1001 911 1001 q 806 412 901 792 q 710 -121 710 32 q 624 -95 656 -121 q 576 -1 592 -69 q 433 771 571 21 q 213 30 271 181 q 78 -121 154 -121 z "},"O":{"ha":910,"x_min":44,"x_max":894,"o":"m 44 228 q 131 583 44 403 q 361 881 218 763 q 653 999 504 999 q 747 960 710 999 q 707 963 725 963 q 468 846 590 963 q 267 554 346 729 q 189 219 189 379 q 237 23 189 100 q 385 -54 285 -54 q 560 17 476 -54 q 700 197 644 88 q 789 433 756 306 q 822 675 822 560 q 808 813 822 751 q 760 875 793 875 q 656 773 715 875 q 579 582 597 671 q 492 663 492 600 q 588 835 492 738 q 763 932 683 932 q 829 903 801 932 q 870 824 857 874 q 889 726 883 775 q 894 625 894 678 q 840 310 894 456 q 703 74 786 165 q 523 -69 619 -18 q 336 -121 426 -121 q 128 -26 211 -121 q 44 228 44 69 z "},"P":{"ha":776,"x_min":47,"x_max":872,"o":"m 47 -42 q 65 36 47 -18 l 174 368 q 269 633 208 474 q 397 940 331 793 q 309 912 351 931 q 242 881 267 893 q 211 868 218 868 q 178 888 199 868 q 158 922 158 908 q 485 1000 344 1000 q 663 971 576 1000 q 810 877 749 942 q 872 728 872 813 q 823 581 872 644 q 706 485 774 518 q 554 432 639 453 q 414 406 469 411 q 317 401 358 401 l 308 401 l 163 -121 q 83 -98 119 -121 q 47 -42 47 -75 m 321 444 q 527 485 432 451 q 690 588 622 518 q 757 750 757 657 q 683 897 757 846 q 504 951 610 949 q 321 444 421 790 z "},"Q":{"ha":1011,"x_min":61,"x_max":940,"o":"m 61 279 q 134 617 61 453 q 340 891 207 782 q 631 1000 474 1000 q 857 908 774 1000 q 940 656 940 817 q 852 298 940 485 q 632 3 764 111 q 831 -51 740 -51 q 867 -49 853 -51 q 899 -40 882 -46 q 929 -31 917 -33 q 776 -165 889 -165 q 663 -136 717 -165 q 542 -54 608 -107 q 393 -89 469 -89 q 308 -74 343 -89 q 256 -38 272 -60 q 234 1 240 -17 q 228 36 228 19 q 256 96 228 69 q 342 122 283 122 q 420 108 378 122 q 490 81 463 94 q 571 36 518 67 q 752 334 683 138 q 821 689 821 531 q 774 875 821 807 q 631 943 728 943 q 397 825 504 943 q 235 542 290 707 q 181 218 181 378 q 197 79 181 143 q 61 279 61 79 m 269 26 q 294 -24 269 -1 q 368 -47 318 -47 q 492 -14 422 -47 q 328 69 390 69 q 326 69 328 69 q 269 26 269 69 z "},"R":{"ha":856,"x_min":43,"x_max":864,"o":"m 43 -42 q 63 35 43 -26 q 230 523 169 360 q 403 943 290 686 q 310 915 356 933 q 238 882 264 896 q 206 868 213 868 q 172 888 193 868 q 150 922 150 907 q 485 1000 344 1000 q 615 985 551 1000 q 737 939 679 969 q 829 855 794 908 q 864 732 864 801 q 821 600 864 657 q 718 513 778 543 q 579 462 658 482 q 444 436 500 442 q 338 429 389 431 l 386 353 q 439 271 429 285 l 488 200 q 550 118 526 143 l 613 47 q 694 -33 653 3 q 786 -107 736 -69 q 753 -151 781 -133 q 701 -168 726 -168 q 567 -73 650 -168 q 414 136 483 22 q 290 360 344 250 l 154 -122 q 77 -99 111 -122 q 43 -42 43 -76 m 322 471 q 526 510 433 479 q 683 606 618 540 q 749 760 749 671 q 678 903 749 858 q 500 951 607 949 q 322 471 422 796 z "},"S":{"ha":788,"x_min":6,"x_max":732,"o":"m 6 133 q 69 281 6 236 q 219 326 133 326 q 129 133 129 232 q 187 6 129 58 q 347 -47 244 -47 q 526 3 449 -47 q 604 140 604 53 q 558 253 604 203 q 446 338 511 303 l 314 410 q 201 502 249 446 q 154 629 154 558 q 202 792 154 708 q 347 938 250 876 q 558 1000 443 1000 q 732 854 732 1000 q 698 697 732 783 q 621 543 664 610 q 560 614 560 556 q 599 755 560 653 q 639 894 639 857 q 623 934 639 921 q 565 947 607 947 q 352 850 443 947 q 261 661 261 753 q 307 563 261 607 q 418 487 353 519 q 548 417 483 454 q 658 319 613 379 q 704 179 704 258 q 588 -39 704 43 q 324 -121 472 -121 q 99 -54 192 -121 q 6 133 6 13 z "},"T":{"ha":750,"x_min":106,"x_max":967,"o":"m 106 854 q 162 943 111 910 q 288 988 213 976 q 474 1000 363 1000 q 753 983 586 1000 q 967 969 899 969 q 858 914 928 933 q 733 891 788 894 q 597 888 679 888 q 372 199 483 607 q 342 81 350 114 q 326 3 333 47 q 319 -81 319 -40 q 324 -121 319 -100 q 188 -14 190 -121 q 236 190 188 42 q 308 390 267 282 q 376 564 349 497 l 451 743 l 513 888 q 106 854 282 885 z "},"U":{"ha":1042,"x_min":46,"x_max":1061,"o":"m 46 744 q 129 917 46 835 q 326 999 213 999 q 488 819 488 999 q 404 447 488 715 q 325 104 325 196 q 440 -47 325 -47 q 574 16 511 -47 q 671 156 636 79 q 725 315 706 233 l 763 464 l 800 611 q 844 764 826 710 l 886 879 q 931 970 910 942 q 972 999 953 999 q 1061 944 1003 999 q 974 767 1035 925 q 858 399 913 608 q 804 61 804 189 q 833 -52 804 -24 q 935 -81 861 -81 q 884 -122 919 -106 q 817 -137 849 -137 q 728 -92 765 -137 q 692 18 692 -47 q 694 90 692 29 q 399 -122 579 -122 q 253 -67 306 -122 q 201 89 201 -11 q 285 446 201 189 q 368 817 368 703 q 293 942 368 942 q 190 867 228 942 q 151 726 151 792 q 169 638 151 683 q 46 744 46 638 z "},"V":{"ha":929,"x_min":47,"x_max":965,"o":"m 47 750 q 128 919 47 839 q 317 1000 208 1000 q 459 932 410 1000 q 508 743 508 864 q 465 481 508 635 q 380 192 422 328 q 338 -11 338 56 q 344 -47 338 -36 q 371 -58 351 -58 q 513 25 428 -58 q 673 227 597 108 q 802 488 749 346 q 856 736 856 629 q 763 901 856 871 q 808 960 781 940 q 861 981 836 981 q 933 931 901 981 q 965 800 965 881 q 862 433 965 653 q 608 47 758 214 q 340 -121 457 -121 q 249 -93 292 -121 q 207 3 207 -65 q 249 184 207 57 q 332 474 290 311 q 374 776 374 636 q 356 899 374 857 q 289 942 338 942 q 190 874 224 942 q 156 729 156 806 q 176 639 156 679 q 79 669 111 639 q 47 750 47 700 z "},"W":{"ha":1324,"x_min":47,"x_max":1361,"o":"m 47 750 q 128 919 47 839 q 315 1000 208 1000 q 458 931 408 1000 q 508 733 508 861 q 418 308 508 594 q 394 238 413 289 q 367 155 376 188 q 347 75 357 122 q 338 -11 338 28 q 344 -48 338 -37 q 368 -58 350 -58 q 531 58 438 -58 q 692 320 624 175 q 774 561 760 465 q 853 533 822 561 q 885 476 885 506 q 833 331 885 450 q 732 -6 732 94 q 740 -47 732 -35 q 768 -58 747 -58 q 909 26 825 -58 q 1068 231 993 111 q 1197 492 1143 351 q 1251 736 1251 633 q 1157 890 1251 858 q 1260 968 1204 968 q 1261 968 1260 968 q 1330 924 1299 968 q 1361 799 1361 879 q 1298 531 1361 690 q 1143 228 1235 371 q 935 -18 1051 85 q 726 -121 819 -121 q 637 -88 672 -121 q 601 -1 601 -56 q 615 69 601 28 q 343 -121 464 -121 q 342 -121 343 -121 q 305 -117 324 -121 q 262 -101 286 -112 q 222 -63 238 -90 q 207 3 207 -36 q 268 258 207 60 q 290 326 274 276 q 313 399 306 376 l 331 465 q 349 539 343 510 l 361 608 q 371 689 368 649 q 374 769 374 729 q 355 901 374 858 q 289 944 336 944 q 191 882 226 944 q 156 740 156 819 q 176 639 156 678 q 79 669 111 639 q 47 750 47 700 z "},"X":{"ha":981,"x_min":63,"x_max":988,"o":"m 63 -156 q 83 -69 68 -97 q 135 -4 97 -42 q 454 357 294 163 q 435 578 442 465 q 427 749 429 690 q 419 860 425 808 q 397 931 413 911 q 349 950 381 950 q 250 883 286 950 q 214 739 214 815 q 232 650 214 690 q 108 756 108 650 q 192 925 108 846 q 379 1004 275 1004 q 460 986 425 1004 q 515 934 494 968 q 547 863 535 900 q 565 774 560 826 q 572 683 571 722 q 574 592 574 644 q 576 514 575 539 q 885 1011 764 767 q 910 980 897 1003 q 924 938 924 957 q 827 738 924 883 q 579 408 731 593 q 713 -40 603 -40 q 811 31 754 -40 q 957 253 868 103 l 988 228 q 828 -33 894 44 q 678 -111 761 -111 q 580 -78 621 -111 q 516 17 539 -44 q 481 134 493 78 q 463 265 469 190 q 231 7 344 126 q 63 -156 117 -112 z "},"Y":{"ha":981,"x_min":44,"x_max":1057,"o":"m 44 744 q 127 917 44 835 q 325 1000 210 1000 q 446 957 404 1000 q 488 847 488 914 q 449 660 488 799 q 399 407 399 481 q 496 276 399 276 q 497 276 496 276 q 663 372 586 276 q 788 610 739 467 l 815 701 l 849 808 q 881 901 863 853 q 921 974 900 949 q 963 1000 942 1000 q 1057 947 1004 1000 q 949 727 985 836 q 828 268 913 618 q 788 119 807 182 q 732 -19 768 57 q 653 -144 696 -96 q 544 -226 611 -193 q 397 -260 478 -260 q 253 -224 308 -260 q 197 -122 197 -187 q 225 -44 197 -78 q 303 1 253 -10 q 288 -93 288 -67 q 414 -211 288 -211 q 548 -165 492 -211 q 635 -41 604 -119 q 683 111 665 38 q 716 274 701 185 q 742 399 731 364 q 451 201 619 201 q 322 250 364 201 q 281 379 281 299 q 325 615 281 449 q 369 842 369 782 q 294 942 369 942 q 189 870 226 942 q 151 715 151 799 q 168 638 151 682 q 44 744 44 638 z "},"Z":{"ha":944,"x_min":-11,"x_max":996,"o":"m -11 46 q 17 103 -11 81 q 107 125 44 125 q 303 90 174 125 q 564 436 421 208 q 335 413 476 432 q 554 531 340 531 q 618 528 576 531 q 774 833 725 710 q 663 871 726 847 q 382 942 468 942 q 229 756 229 942 q 242 696 235 708 q 139 806 139 714 q 212 950 139 900 q 424 1000 285 1000 q 694 956 532 1000 q 926 913 857 913 q 996 918 972 913 q 908 850 947 869 q 736 518 842 694 q 894 507 875 507 q 826 452 861 463 q 689 439 792 442 q 396 65 539 203 q 728 -6 631 -6 q 853 25 790 -6 q 783 -88 822 -56 q 681 -121 743 -121 q 611 -114 647 -121 q 529 -90 575 -107 q 460 -64 483 -74 q 381 -29 436 -54 q 318 0 326 -4 q 133 -75 214 -75 q 29 -37 69 -75 q -11 46 -11 1 m 35 38 q 60 -8 35 14 q 122 -29 86 -29 q 238 32 157 -29 q 90 74 131 74 q 35 38 35 74 z "},"[":{"ha":608,"x_min":67,"x_max":669,"o":"m 67 -90 q 85 -36 76 -74 q 125 165 94 1 l 219 689 q 299 914 247 850 q 410 978 351 978 q 457 976 421 978 q 515 974 493 974 q 669 1007 610 974 q 626 897 667 922 q 510 871 585 871 q 360 893 474 871 q 251 393 315 763 q 174 -25 188 24 q 388 -19 328 -24 q 514 4 449 -14 q 469 -91 514 -61 q 324 -121 424 -121 q 67 -90 211 -121 z "},"\\":{"ha":839,"x_min":240,"x_max":678,"o":"m 240 1006 q 310 983 276 1006 q 354 932 343 960 q 463 549 394 828 l 590 36 q 678 -232 649 -197 q 604 -200 636 -225 q 544 -120 572 -175 q 494 -5 515 -65 q 444 168 472 56 q 390 386 415 281 l 324 669 l 240 1006 z "},"]":{"ha":635,"x_min":19,"x_max":615,"o":"m 19 -122 q 183 -3 28 -3 q 273 -8 211 -3 q 354 -14 335 -12 q 473 510 400 117 q 550 921 546 903 q 174 889 293 921 q 218 979 174 956 q 356 1003 263 1003 q 615 974 474 1003 q 568 623 608 893 q 496 189 528 353 l 483 125 q 463 53 479 100 q 428 -22 446 6 q 378 -73 410 -50 q 307 -96 346 -96 q 19 -122 104 -96 z "},"^":{"ha":292,"x_min":1,"x_max":292,"o":"m 1 644 q 63 723 1 682 q 160 764 125 764 q 243 711 194 764 q 292 617 292 658 q 257 564 292 581 q 158 678 225 618 q 19 611 82 653 q 1 644 1 622 z "},"_":{"ha":1232,"x_min":-3,"x_max":1050,"o":"m -3 -101 q 117 2 8 -25 q 439 29 226 29 q 788 17 585 29 q 1050 3 990 4 q 814 -83 918 -83 q 538 -76 704 -83 q 343 -69 372 -69 q 153 -76 215 -69 q -3 -101 90 -82 z "},"`":{"ha":192,"x_min":-6,"x_max":192,"o":"m -6 721 q 9 761 -4 747 q 39 775 22 775 q 135 711 78 775 q 192 618 192 647 q 182 590 192 606 q 157 568 172 575 q -6 721 89 649 z "},"a":{"ha":617,"x_min":-36,"x_max":676,"o":"m -36 57 q 21 236 -36 138 q 172 406 78 335 q 357 476 265 476 q 459 445 418 476 q 500 365 500 414 q 421 299 500 301 q 471 258 471 283 q 431 174 471 242 q 392 74 392 107 q 433 24 392 24 q 533 78 472 24 q 650 240 593 132 l 676 214 q 549 28 625 99 q 394 -42 472 -42 q 309 -5 339 -42 q 279 79 279 32 q 172 -31 217 4 q 78 -65 128 -65 q -3 -33 29 -65 q -36 57 -36 -1 m 75 50 q 107 6 75 6 q 145 16 125 6 q 189 47 165 26 l 232 89 q 279 143 253 110 l 321 196 l 361 250 l 394 296 q 406 303 399 303 l 408 303 l 411 301 q 418 353 418 324 q 360 425 418 425 q 172 289 268 425 q 75 50 75 153 z "},"b":{"ha":568,"x_min":-15,"x_max":625,"o":"m -15 83 q 68 434 -15 214 q 258 823 151 654 q 426 992 365 992 q 467 963 453 992 q 483 896 482 933 q 440 725 483 829 q 319 519 396 621 q 161 369 243 417 q 120 251 142 333 q 99 92 99 168 q 171 -43 99 -43 q 249 -10 207 -43 q 317 71 290 22 q 240 148 267 99 q 213 254 213 197 q 249 363 213 321 q 339 406 285 406 q 414 370 386 406 q 442 267 442 335 q 400 92 442 181 q 412 91 404 92 q 425 90 419 90 q 604 244 529 90 l 625 215 q 537 88 588 129 q 407 47 486 47 q 378 49 388 47 q 146 -101 283 -101 q 26 -53 68 -101 q -15 83 -15 -4 m 188 457 q 344 669 271 533 q 418 861 417 806 q 309 720 388 850 q 188 457 231 590 m 281 247 q 340 117 281 158 q 365 235 365 172 q 325 332 365 332 q 294 307 307 332 q 281 247 281 282 z "},"c":{"ha":463,"x_min":-8,"x_max":522,"o":"m -8 106 q 89 356 -8 242 q 300 469 186 469 q 383 442 356 469 q 410 372 410 414 q 390 295 410 331 q 340 260 369 260 q 297 286 314 260 q 342 390 342 317 q 315 414 342 414 q 173 303 247 414 q 99 97 99 192 q 196 -7 99 -7 q 197 -7 196 -7 q 365 62 279 -7 q 494 240 450 131 l 522 215 q 368 6 472 89 q 157 -78 264 -78 q 37 -31 82 -78 q -8 106 -8 15 z "},"d":{"ha":682,"x_min":-22,"x_max":790,"o":"m -22 83 q 35 260 -22 161 q 186 435 92 360 q 372 510 281 510 q 440 465 440 510 q 424 433 440 443 q 375 449 413 449 q 237 383 304 449 q 133 238 169 318 q 97 103 97 158 q 142 44 97 44 q 288 146 201 44 q 438 413 374 247 l 492 550 l 546 681 q 603 808 579 761 q 655 904 626 854 q 707 977 683 954 q 751 1000 731 1000 q 778 988 767 1000 q 790 958 790 976 q 740 825 790 929 l 633 603 q 525 342 575 486 q 475 96 475 197 q 481 51 475 63 q 503 39 488 39 q 611 94 550 39 q 718 244 672 150 l 744 222 q 618 36 699 108 q 458 -36 538 -36 q 357 85 357 -36 q 368 175 357 117 q 228 17 300 76 q 96 -42 156 -42 q 14 -10 50 -42 q -22 83 -22 22 z "},"e":{"ha":474,"x_min":-24,"x_max":535,"o":"m -24 107 q 94 367 -24 233 q 336 501 211 501 q 438 408 438 501 q 329 231 438 308 q 88 139 221 153 q 85 107 85 125 q 87 81 85 93 q 98 47 89 68 q 131 12 107 25 q 192 -1 156 -1 q 365 67 276 -1 q 507 239 453 136 l 535 217 q 376 15 479 92 q 161 -61 272 -61 q 25 -14 74 -61 q -24 107 -24 33 m 103 190 q 273 271 183 200 q 363 415 363 342 q 339 442 363 442 q 206 361 278 442 q 103 190 133 281 z "},"f":{"ha":458,"x_min":-92,"x_max":572,"o":"m -92 -256 q -31 58 -92 -150 q 116 476 29 267 q 314 843 203 686 q 514 1000 425 1000 q 572 929 572 1000 q 456 661 572 814 q 193 411 340 508 l 171 356 q 206 307 200 343 q 222 222 215 250 q 242 161 228 194 q 276 115 256 128 q 328 101 297 101 q 410 135 374 101 q 490 239 447 168 l 521 217 q 424 89 479 132 q 321 46 369 46 q 222 83 274 46 q 189 -139 221 -29 q 105 -319 157 -249 q -1 -389 53 -389 q -63 -360 -35 -389 q -92 -256 -92 -331 m 38 -303 q 120 -162 75 -303 q 165 83 165 -22 q 125 225 165 153 q 15 -242 15 -97 q 38 -303 15 -303 m 233 508 q 426 726 351 618 q 500 876 500 835 q 489 888 500 888 q 372 783 440 888 q 233 508 304 678 z "},"g":{"ha":560,"x_min":-25,"x_max":619,"o":"m -25 -300 q -6 -234 -25 -267 q 36 -180 14 -201 q 105 -131 58 -158 q 175 -92 151 -103 l 254 -53 q 310 121 289 35 q 99 -21 197 -21 q 10 18 43 -21 q -22 121 -22 57 q 106 371 -22 260 q 363 482 233 482 q 428 467 406 482 q 451 429 451 451 q 443 404 451 415 q 429 392 435 393 q 369 417 404 417 q 367 417 368 417 q 178 312 264 417 q 92 115 92 207 q 135 58 92 58 q 227 107 172 58 q 336 232 282 156 q 372 344 351 310 q 432 378 393 378 q 472 372 450 378 q 442 228 472 336 q 368 3 411 119 q 502 94 438 32 q 594 236 567 156 l 619 211 q 510 53 589 124 q 350 -56 432 -18 q 69 -389 213 -389 q 3 -366 31 -389 q -25 -300 -25 -343 m 38 -286 q 64 -325 38 -325 q 136 -274 92 -325 q 228 -118 181 -222 q 88 -202 138 -162 q 38 -286 38 -242 z "},"h":{"ha":686,"x_min":7,"x_max":746,"o":"m 7 104 q 84 443 7 229 q 264 824 161 657 q 431 992 367 992 q 474 961 458 992 q 490 893 490 931 q 388 615 490 790 q 165 369 286 440 q 118 133 118 244 q 119 118 118 128 q 119 104 119 108 q 137 147 122 108 q 172 229 151 186 q 224 319 193 272 q 300 395 254 365 q 399 425 346 425 q 492 384 463 425 q 521 288 521 343 q 492 167 521 239 q 463 67 463 94 q 499 22 463 22 q 500 22 499 22 q 613 89 546 22 q 724 246 681 156 l 746 222 q 622 38 694 108 q 465 -33 549 -33 q 385 -6 414 -33 q 357 64 357 21 q 377 164 357 92 q 397 265 397 236 q 347 324 397 324 q 259 265 300 324 q 194 135 218 206 q 135 6 169 65 q 64 -53 100 -53 q 21 -8 35 -53 q 7 104 7 36 m 194 458 q 351 671 278 535 q 424 861 424 807 q 317 723 394 850 q 194 458 240 596 z "},"i":{"ha":339,"x_min":-11,"x_max":396,"o":"m -11 82 q 18 228 -11 138 q 97 396 47 319 q 196 472 147 472 q 226 462 214 472 q 238 432 238 451 q 202 356 238 414 q 131 226 167 299 q 94 100 94 153 q 110 42 94 57 q 157 26 125 26 q 375 239 267 26 l 396 217 q 272 26 347 94 q 111 -42 197 -42 q 21 -7 53 -42 q -11 82 -11 28 m 206 639 q 241 695 206 671 q 317 719 276 719 q 376 668 376 719 q 344 612 376 639 q 275 585 313 585 q 226 599 246 585 q 206 639 206 613 z "},"j":{"ha":315,"x_min":-274,"x_max":372,"o":"m -274 -307 q -196 -166 -274 -239 q 0 -46 -118 -93 q 79 236 50 78 l 56 199 q 31 157 39 172 l 7 194 q 62 319 31 238 q 117 444 93 401 q 172 486 142 486 q 203 472 190 486 q 215 435 215 457 q 187 267 215 397 q 115 8 158 136 q 195 57 165 36 q 268 123 225 78 q 347 231 311 168 l 372 214 q 319 124 347 163 q 259 56 292 85 q 206 13 226 28 q 145 -24 185 -1 q 93 -54 106 -46 q -33 -294 39 -199 q -186 -389 -104 -389 q -250 -367 -226 -389 q -274 -307 -274 -344 m -218 -299 q -201 -322 -218 -322 q -126 -268 -174 -322 q -32 -118 -79 -214 q -170 -212 -122 -164 q -218 -299 -218 -260 m 124 642 q 160 700 124 675 q 238 725 197 725 q 294 676 294 725 q 264 615 294 642 q 193 589 233 589 q 144 603 165 589 q 124 642 124 617 z "},"k":{"ha":642,"x_min":3,"x_max":699,"o":"m 3 61 q 55 349 3 182 q 176 656 107 517 q 319 893 246 794 q 433 992 393 992 q 473 963 457 992 q 489 890 489 933 q 407 665 489 792 q 201 467 325 539 q 115 132 128 293 q 424 476 265 476 q 521 437 479 476 q 563 340 563 397 q 524 249 563 289 q 442 194 485 210 q 363 176 399 178 q 472 14 399 14 q 578 80 522 14 q 679 247 633 146 l 699 224 q 588 29 660 111 q 440 -53 515 -53 q 347 -5 386 -53 q 291 100 307 43 q 275 206 275 157 q 454 329 454 246 q 438 369 454 354 q 393 385 422 385 q 126 28 260 385 q 97 -28 111 -14 q 57 -43 83 -43 q 3 61 3 -43 m 242 561 q 366 705 310 621 q 424 861 422 789 q 347 764 401 851 q 242 561 293 676 z "},"l":{"ha":340,"x_min":3,"x_max":503,"o":"m 3 106 q 91 452 3 233 q 286 835 179 671 q 444 1000 393 1000 q 485 963 468 1000 q 503 889 501 926 q 455 708 503 825 q 317 458 407 590 q 128 249 226 326 q 113 122 113 167 q 113 118 113 121 q 172 22 113 22 q 276 87 221 22 q 374 243 331 151 l 407 225 q 272 28 346 99 q 119 -42 199 -42 q 3 106 3 -42 m 153 335 q 351 627 264 456 q 439 874 439 799 q 368 793 421 874 q 253 583 315 713 q 153 335 190 453 z "},"m":{"ha":917,"x_min":-49,"x_max":975,"o":"m -49 0 q 40 356 35 335 q 70 383 44 371 q 117 394 96 394 q 151 382 138 394 q 164 349 164 369 q 144 249 164 326 q 415 461 300 461 q 503 344 503 461 q 479 233 503 304 q 681 376 576 376 q 753 347 731 376 q 776 272 776 317 q 753 158 776 233 q 729 61 729 82 q 764 24 729 24 q 951 240 851 24 l 975 211 q 872 32 935 107 q 726 -43 808 -43 q 647 -12 675 -43 q 619 65 619 18 q 639 161 619 97 q 658 249 658 225 q 626 290 658 290 q 556 246 596 290 q 447 100 515 201 q 403 27 429 75 q 371 -32 378 -21 q 317 -22 346 -32 q 288 4 288 -12 q 333 137 288 14 q 379 310 379 260 q 350 351 379 351 q 194 226 293 351 q 44 -37 94 100 q -15 -24 19 -37 q -49 0 -49 -10 z "},"n":{"ha":657,"x_min":-53,"x_max":717,"o":"m -53 19 q -28 82 -53 21 q 19 219 -3 143 q 42 349 42 296 q 114 382 72 382 q 163 340 163 382 q 139 217 163 303 q 401 406 281 406 q 488 367 457 406 q 518 276 518 329 q 491 163 518 231 q 464 68 464 96 q 497 28 464 28 q 597 91 543 28 q 693 240 650 154 l 717 221 q 468 -28 607 -28 q 386 -1 415 -28 q 357 68 357 25 q 376 158 357 96 q 396 251 396 221 q 347 306 396 306 q 265 274 308 306 q 174 182 221 243 q 103 83 128 121 l 38 -21 q -53 19 -22 -21 z "},"o":{"ha":517,"x_min":-17,"x_max":574,"o":"m -17 86 q 36 265 -17 178 q 150 353 89 353 q 193 342 167 353 q 238 447 201 406 q 342 489 275 489 q 424 458 397 489 q 450 376 450 426 q 358 140 450 281 q 397 132 375 132 q 481 158 436 132 q 549 236 525 183 l 574 218 q 495 117 544 151 q 393 82 446 82 q 324 94 361 82 q 92 -44 208 -44 q 8 -7 33 -44 q -17 86 -17 31 m 94 90 q 142 26 94 26 q 275 125 192 26 q 192 329 196 194 q 130 233 165 315 q 94 90 94 150 m 271 306 q 282 233 271 274 q 311 169 293 192 q 392 376 392 285 q 353 438 392 438 q 297 399 324 438 q 271 306 271 360 z "},"p":{"ha":574,"x_min":-133,"x_max":532,"o":"m -133 -354 q -18 26 -47 -104 q 53 486 11 157 q 56 505 54 500 q 65 514 58 510 q 86 518 72 518 q 147 497 126 518 q 168 444 168 475 q 149 314 168 411 q 375 472 251 472 q 488 426 443 472 q 532 306 532 379 q 491 152 532 232 q 369 14 450 72 q 194 -44 289 -44 q 124 -33 151 -44 q 97 -8 97 -22 q 131 6 97 6 q 338 98 254 8 q 422 289 422 188 q 403 363 422 333 q 344 392 383 392 q 215 321 281 392 q 118 178 150 250 q 75 15 99 110 l 38 -143 q 3 -267 22 -206 q -35 -358 -15 -328 q -78 -389 -56 -389 q -113 -376 -94 -389 q -133 -354 -132 -364 z "},"q":{"ha":579,"x_min":-19,"x_max":639,"o":"m -19 78 q 39 258 -19 160 q 194 426 97 356 q 385 496 290 496 q 474 474 438 496 q 510 418 510 451 q 481 365 510 381 q 508 329 508 360 q 458 217 508 304 q 388 40 408 131 q 614 235 519 57 l 639 213 q 388 -1 546 25 q 411 -147 411 -69 q 381 -320 411 -251 q 300 -389 350 -389 q 240 -279 240 -389 q 258 -101 240 -212 q 303 107 275 11 q 96 -50 176 -50 q 17 -17 54 -50 q -19 78 -19 15 m 96 96 q 108 52 96 69 q 142 35 119 35 q 198 58 167 35 q 267 132 229 82 q 331 218 306 182 l 399 319 q 453 371 432 371 q 432 419 453 401 q 376 438 411 438 q 267 399 321 438 q 176 304 213 360 q 118 192 140 249 q 96 96 96 135 m 324 -269 q 329 -299 324 -299 q 351 -139 351 -299 q 347 -74 351 -100 q 324 -269 324 -187 z "},"r":{"ha":504,"x_min":0,"x_max":568,"o":"m 0 181 q 113 432 64 294 q 99 469 99 446 q 121 538 99 506 q 164 569 143 569 q 187 553 178 569 q 196 525 196 536 q 188 498 196 519 q 181 474 181 476 q 206 444 182 461 q 257 410 229 426 q 308 360 285 393 q 331 288 331 328 q 294 165 331 243 q 258 65 258 88 q 293 33 258 33 q 429 102 354 33 q 535 238 504 171 l 568 213 q 435 40 525 115 q 257 -36 346 -36 q 174 -9 206 -36 q 142 64 142 18 q 181 192 142 104 q 221 311 221 279 q 151 400 221 364 q 21 140 97 267 l 0 181 z "},"s":{"ha":488,"x_min":-28,"x_max":543,"o":"m -28 119 q -10 193 -28 168 q 34 229 7 218 q 64 243 61 240 q 199 433 153 335 l 199 447 q 261 549 199 549 q 294 521 292 549 q 291 501 294 517 q 288 471 288 485 q 328 320 288 433 q 368 140 368 207 q 363 83 368 117 q 526 240 457 107 l 543 228 q 350 42 486 63 q 278 -42 328 -14 q 163 -71 228 -71 q 19 -15 65 -71 q -28 119 -28 42 m 49 117 q 76 28 49 67 q 153 -10 104 -10 q 242 44 214 -10 q 142 87 188 56 q 68 154 96 118 q 49 117 49 150 m 89 204 q 156 131 113 164 q 253 86 199 99 q 257 129 257 99 q 251 194 257 158 q 242 249 246 229 q 225 317 238 269 q 210 378 213 365 q 89 204 142 260 z "},"t":{"ha":400,"x_min":-10,"x_max":461,"o":"m -10 82 q 67 399 -10 190 q 18 411 31 406 l 18 454 q 85 447 51 450 q 219 717 147 604 q 335 829 290 829 q 362 818 350 829 q 374 789 374 807 q 347 715 374 764 q 272 583 321 665 q 194 443 224 501 q 449 453 354 443 l 449 407 q 169 390 283 390 q 97 111 97 219 q 115 31 97 54 q 172 7 133 7 q 315 70 242 7 q 442 242 388 133 l 461 228 q 314 17 404 99 q 126 -64 224 -64 q 26 -27 63 -64 q -10 82 -10 10 z "},"u":{"ha":613,"x_min":-1,"x_max":669,"o":"m -1 103 q 44 298 -1 182 q 125 414 90 414 q 190 378 154 414 q 130 254 161 335 q 99 115 99 174 q 140 32 99 32 q 229 101 176 32 q 319 240 282 169 q 386 379 356 311 q 469 332 469 365 q 447 280 469 329 q 403 167 425 231 q 382 64 382 103 q 418 15 382 15 q 419 15 418 15 q 533 77 465 15 q 649 238 600 139 l 669 221 q 539 33 622 108 q 378 -42 456 -42 q 333 -31 351 -42 q 304 -7 314 -21 q 289 31 294 7 q 283 71 283 54 q 282 114 282 88 q 229 38 251 67 q 172 -16 207 10 q 106 -42 138 -42 q 29 1 60 -42 q -1 103 -1 44 z "},"v":{"ha":569,"x_min":11,"x_max":622,"o":"m 11 113 q 17 278 11 151 q 26 336 18 322 q 69 350 35 350 q 108 338 101 350 q 115 283 115 326 q 112 194 115 256 q 108 103 108 133 q 113 38 108 56 q 133 19 118 19 q 241 108 178 19 q 351 303 304 196 q 372 426 354 392 q 424 461 390 461 q 469 442 454 461 q 483 400 483 422 q 461 342 483 388 q 439 228 439 296 q 499 131 439 131 q 607 233 554 131 l 622 221 q 475 83 564 83 q 357 213 390 83 q 103 -54 211 -54 q 11 113 11 -54 z "},"w":{"ha":876,"x_min":-1,"x_max":933,"o":"m -1 103 q 45 299 -1 183 q 125 415 92 415 q 160 403 138 415 q 189 375 183 390 q 129 253 160 333 q 99 114 99 172 q 142 32 99 32 q 340 281 213 32 q 368 386 357 365 q 400 407 379 407 q 456 367 456 407 q 449 342 456 363 q 418 90 418 243 q 443 19 418 19 q 538 101 479 19 q 647 285 597 182 q 724 461 647 461 q 769 441 754 461 q 785 401 785 421 q 767 354 785 394 q 739 231 739 299 q 800 128 739 128 q 907 233 853 128 l 933 213 q 789 86 881 86 q 661 201 703 86 q 404 -53 515 -53 q 322 86 328 -53 q 324 129 322 93 q 326 181 325 165 q 108 -42 204 -42 q 107 -42 108 -42 q 30 1 61 -42 q -1 103 -1 43 z "},"x":{"ha":597,"x_min":11,"x_max":654,"o":"m 11 200 q 40 258 22 219 q 71 322 57 296 q 105 376 85 349 q 154 417 125 403 q 221 432 183 432 q 303 402 274 432 q 349 314 332 372 q 533 461 496 461 q 558 451 544 461 q 579 425 572 442 q 492 374 553 425 q 360 243 432 322 q 365 202 361 233 q 372 145 368 171 q 384 92 376 119 q 406 47 392 64 q 439 31 419 31 q 541 100 482 31 q 632 238 600 169 l 654 217 q 542 39 615 115 q 396 -37 469 -37 q 269 133 297 -37 q 100 -69 185 38 q 76 -82 89 -82 q 58 -73 65 -82 q 51 -54 51 -64 q 258 219 51 0 q 248 281 251 261 q 238 322 244 300 q 221 352 231 344 q 196 360 211 360 q 161 349 178 360 q 128 315 144 338 q 98 270 111 292 q 66 215 85 249 q 35 161 47 181 l 11 200 z "},"y":{"ha":556,"x_min":-28,"x_max":610,"o":"m -28 -299 q -8 -233 -28 -265 q 33 -179 11 -201 q 102 -130 56 -157 q 174 -92 149 -103 l 249 -54 q 315 163 272 6 q 115 11 208 11 q 33 39 69 11 q -3 126 -3 67 q 44 315 -3 201 q 125 429 92 429 q 167 415 139 429 q 200 383 194 400 q 142 263 174 347 q 111 129 111 178 q 150 78 111 78 q 151 78 150 78 q 335 246 229 78 q 341 277 336 249 q 351 325 346 306 q 376 363 357 344 q 424 382 396 382 q 468 376 429 382 q 435 225 467 342 q 363 -3 404 108 q 586 232 521 63 l 610 213 q 344 -56 557 39 q 67 -389 204 -389 q 0 -366 28 -389 q -28 -299 -28 -343 m 26 -299 q 53 -337 26 -337 q 129 -278 82 -337 q 222 -115 176 -219 q 26 -299 26 -214 z "},"z":{"ha":460,"x_min":-94,"x_max":511,"o":"m -94 -310 q -76 -241 -94 -272 q -19 -179 -58 -210 q 57 -126 19 -149 l 154 -69 q 253 -8 215 -33 q 136 163 249 82 q 258 242 213 183 q 304 357 304 300 q 247 422 304 422 q 199 408 224 422 q 156 372 175 393 q 114 315 136 350 q 75 247 92 279 l 38 171 l 11 193 q 122 414 64 338 q 268 490 179 490 q 367 458 328 490 q 406 365 406 425 q 361 243 406 301 q 249 150 317 185 q 339 36 308 103 q 493 231 451 122 l 511 208 q 353 0 469 86 q 358 -46 358 -25 q 252 -280 358 -171 q 11 -389 146 -389 q -94 -310 -94 -389 m -46 -299 q -8 -336 -46 -336 q 144 -257 54 -336 q 250 -64 233 -178 q 168 -114 219 -83 l 85 -161 q 20 -204 54 -179 q -30 -252 -14 -229 q -46 -299 -46 -275 z "},"{":{"ha":422,"x_min":86,"x_max":490,"o":"m 86 -21 q 137 147 86 26 q 188 329 188 268 q 115 468 188 413 q 214 531 182 474 q 251 665 246 589 l 264 819 q 303 947 269 894 q 404 1000 336 1000 q 490 946 490 1000 q 479 906 490 926 q 425 926 440 926 q 402 919 413 926 q 384 894 392 911 q 371 860 376 876 q 361 814 365 844 l 354 765 q 347 710 351 746 q 331 587 338 628 q 306 501 325 546 q 256 446 286 457 q 285 351 285 413 q 234 140 285 267 q 183 -32 183 14 q 225 -68 183 -68 q 269 -54 249 -68 q 194 -121 265 -121 q 112 -92 138 -121 q 86 -21 86 -64 z "},"|":{"ha":408,"x_min":108,"x_max":300,"o":"m 108 -183 q 170 172 146 -85 q 211 672 194 429 q 244 969 228 915 q 300 847 300 947 q 289 444 299 699 q 268 76 279 190 q 108 -183 246 -183 z "},"}":{"ha":418,"x_min":6,"x_max":418,"o":"m 6 -49 q 8 -19 6 -31 q 68 -44 46 -44 q 119 17 103 -44 q 149 186 136 78 q 165 311 158 267 q 194 409 172 356 q 250 485 217 463 q 218 579 218 522 q 266 769 218 644 q 314 915 314 894 q 283 944 314 944 q 240 929 263 944 q 239 942 239 933 q 263 992 239 972 q 332 1013 286 1013 q 418 947 418 1013 q 368 797 418 917 q 318 601 318 676 q 388 467 318 508 q 285 383 318 450 q 246 232 251 315 l 235 69 q 197 -66 229 -11 q 97 -121 165 -121 q 6 -49 6 -121 z "},"~":{"ha":663,"x_min":82,"x_max":547,"o":"m 82 221 q 201 289 142 289 q 331 262 231 289 q 465 235 431 235 q 547 246 481 235 q 418 171 474 171 q 289 201 386 171 q 157 231 192 231 q 82 221 122 231 z "},"":{"ha":413,"x_min":-83,"x_max":429,"o":"m -83 -304 q 81 72 -83 -249 q 328 510 244 392 l 344 504 q 269 242 344 436 l 215 104 l 163 -26 q 106 -154 129 -108 q 53 -250 82 -200 q 1 -323 25 -300 q -44 -346 -24 -346 q -72 -333 -60 -346 q -83 -304 -83 -321 m 292 599 q 317 646 292 624 q 374 668 343 668 q 429 621 429 668 q 401 576 429 596 q 339 556 372 556 q 292 599 292 556 z "},"":{"ha":592,"x_min":83,"x_max":556,"o":"m 83 335 q 171 563 83 456 q 369 701 258 669 q 408 931 392 815 q 416 958 411 947 q 440 983 421 969 q 493 1003 460 996 l 440 711 q 525 681 494 711 q 556 596 556 651 q 540 527 556 557 q 493 497 524 497 q 447 524 468 497 q 469 554 460 529 q 479 604 479 579 q 465 639 479 625 q 429 653 451 653 q 350 231 369 325 q 513 311 440 249 l 543 278 q 338 163 443 188 q 245 -135 292 -46 q 104 -225 199 -225 q 246 153 165 -160 q 128 203 174 156 q 83 335 83 251 m 192 328 q 264 225 192 240 q 354 624 303 376 q 238 491 285 578 q 192 328 192 404 z "},"":{"ha":960,"x_min":-14,"x_max":917,"o":"m -14 56 q 100 125 -14 125 q 275 97 168 125 q 336 229 314 167 q 171 208 186 211 q 369 325 176 319 l 382 365 q 281 369 349 369 q 188 365 226 369 q 256 433 188 404 q 411 461 324 461 l 440 547 q 335 610 374 569 q 296 697 296 651 q 328 780 296 742 q 411 818 360 818 q 385 728 385 783 q 457 596 385 639 q 515 752 486 686 q 581 878 543 818 q 664 969 618 938 q 764 1000 710 1000 q 869 965 822 1000 q 917 850 917 931 q 895 746 917 800 q 832 642 874 692 q 716 560 790 592 q 549 528 642 528 q 525 457 533 488 l 594 449 q 678 441 640 443 q 757 439 715 439 q 682 385 724 394 q 496 372 640 375 q 476 322 478 328 q 583 312 492 321 q 731 301 674 303 q 653 247 697 257 q 442 235 608 238 q 358 75 394 126 q 725 -6 628 -6 q 849 25 786 -6 q 682 -121 796 -121 q 618 -114 653 -121 q 539 -91 583 -107 q 465 -63 494 -75 q 380 -27 435 -51 q 304 6 325 -3 q 143 -74 229 -74 q 31 -31 75 -74 q -14 56 -14 11 m 29 43 q 59 0 29 25 q 124 -25 89 -25 q 232 33 179 -25 q 85 69 133 69 q 29 43 29 69 m 564 574 q 701 637 639 579 q 792 762 763 694 q 821 883 821 829 q 775 946 821 946 q 718 918 746 946 q 663 833 690 890 q 614 719 635 775 q 564 574 593 664 z "},"":{"ha":1021,"x_min":125,"x_max":1033,"o":"m 125 65 q 198 122 156 93 q 276 183 240 151 q 347 263 311 214 q 333 351 333 308 q 393 590 333 479 q 224 746 313 671 q 193 836 196 769 q 207 897 193 865 q 440 667 274 838 q 624 767 524 767 q 779 681 728 767 l 814 729 q 849 775 838 761 q 883 808 861 789 q 931 834 906 826 q 990 842 957 842 q 1033 836 1000 842 q 1013 808 1026 825 q 978 767 1000 792 l 935 718 l 876 653 l 808 578 q 811 542 811 553 q 740 306 811 438 q 907 74 906 163 q 899 28 907 56 q 849 88 879 58 q 769 160 819 117 q 690 232 719 204 q 513 136 608 136 q 392 188 436 136 q 125 65 274 65 m 433 340 q 462 261 433 293 q 522 229 490 229 q 613 285 567 229 q 687 421 658 342 q 715 569 715 500 q 689 647 715 615 q 629 679 663 679 q 529 617 576 679 q 458 478 482 556 q 433 340 433 401 z "},"":{"ha":1206,"x_min":165,"x_max":1178,"o":"m 165 744 q 249 917 165 835 q 446 1000 332 1000 q 568 956 526 1000 q 610 850 610 911 q 565 647 610 807 q 521 408 521 486 q 617 276 521 276 q 738 331 678 276 q 836 454 797 385 q 910 610 875 524 q 1085 1000 1000 1000 q 1129 985 1101 1000 q 1178 947 1157 969 q 1069 715 1111 843 q 988 421 1026 588 q 924 169 950 254 q 1019 163 960 168 q 1089 158 1079 158 q 906 101 1006 101 l 882 35 q 1050 25 932 33 l 1092 22 q 915 -36 1008 -36 l 851 -36 q 531 -260 744 -260 q 379 -223 440 -260 q 318 -121 318 -186 q 425 -3 318 -40 q 411 -97 411 -56 q 444 -176 411 -146 q 533 -206 476 -206 q 750 -36 664 -206 q 532 -53 643 -36 q 779 36 564 31 l 801 101 q 529 83 633 99 q 621 153 547 135 q 819 174 694 172 q 840 285 826 200 q 863 414 854 371 q 574 201 733 201 q 445 249 488 201 q 403 378 403 296 q 447 616 403 450 q 492 840 492 782 q 415 946 492 946 q 310 873 349 946 q 272 724 272 800 q 290 638 272 678 q 165 744 165 638 z "},"":{"ha":410,"x_min":110,"x_max":301,"o":"m 110 -183 q 182 276 151 -75 q 257 313 213 313 q 283 271 283 313 q 276 79 283 158 q 249 -62 268 0 q 196 -153 231 -124 q 110 -183 161 -183 m 190 392 l 201 539 q 212 685 208 633 q 222 801 215 736 q 233 906 228 865 q 246 971 239 946 q 301 871 301 949 q 297 723 301 843 q 293 528 293 603 q 246 431 293 463 l 190 392 z "},"":{"ha":615,"x_min":28,"x_max":600,"o":"m 28 46 q 72 142 28 113 q 176 172 117 172 q 113 44 113 108 q 149 -34 113 -1 q 251 -67 186 -67 q 363 -35 315 -67 q 410 49 410 -4 q 379 121 410 88 q 306 181 349 154 l 219 236 q 146 308 176 265 q 115 404 115 351 q 176 544 115 485 q 347 604 238 603 q 257 672 289 638 q 225 757 225 706 q 301 919 225 840 q 489 999 376 999 q 600 901 600 999 q 529 700 600 808 q 485 749 485 707 q 510 842 485 775 q 535 931 535 908 q 493 958 535 958 q 358 897 415 958 q 300 778 300 836 q 328 717 300 744 q 394 669 356 690 q 472 623 433 649 q 539 551 511 597 q 567 444 567 506 q 510 306 567 354 q 363 258 454 258 q 339 260 344 258 q 410 217 382 236 q 464 159 438 197 q 490 76 490 121 q 411 -66 490 -11 q 233 -121 332 -121 q 88 -77 149 -121 q 28 46 28 -33 m 206 438 q 210 405 206 421 q 227 368 215 389 q 267 335 239 347 q 336 322 296 322 q 433 352 399 322 q 468 436 468 382 q 438 518 468 486 q 347 550 407 550 q 247 519 289 550 q 206 438 206 489 z "},"":{"ha":319,"x_min":-6,"x_max":340,"o":"m -6 651 q 25 697 -6 676 q 88 718 56 718 q 138 674 138 718 q 111 626 138 649 q 54 604 85 604 q 12 616 29 604 q -6 651 -6 628 m 196 624 q 226 670 196 650 q 289 690 256 690 q 340 644 340 690 q 313 598 340 619 q 254 576 286 576 q 213 589 231 576 q 196 624 196 601 z "},"":{"ha":861,"x_min":122,"x_max":847,"o":"m 122 497 q 178 701 122 615 q 314 824 235 786 q 481 861 393 861 q 608 838 544 861 q 726 773 672 815 q 814 660 781 731 q 847 503 847 589 q 788 299 847 385 q 648 176 729 214 q 478 139 567 139 q 233 233 340 139 q 122 497 126 328 m 179 503 q 261 283 179 368 q 478 197 343 197 q 702 283 614 197 q 790 503 790 368 q 703 718 790 633 q 482 803 617 803 q 264 719 349 803 q 179 503 179 636 m 360 417 l 360 596 q 482 728 360 728 q 578 692 544 728 q 611 622 611 657 q 581 589 611 589 q 554 601 563 589 q 544 630 546 614 q 528 658 543 646 q 485 671 514 671 q 421 596 421 671 l 421 417 q 436 359 421 376 q 492 342 451 342 q 535 354 521 342 q 550 383 549 367 q 558 411 551 399 q 581 424 565 424 q 614 394 614 424 q 581 317 614 349 q 490 286 547 286 q 396 318 432 286 q 360 417 360 350 z "},"":{"ha":569,"x_min":174,"x_max":661,"o":"m 174 710 q 262 899 174 799 q 446 1000 350 1000 q 518 978 489 1000 q 547 921 547 956 q 506 874 547 879 q 528 847 526 863 q 501 790 528 835 q 474 722 474 744 q 499 690 474 690 q 565 728 525 690 q 647 838 604 767 l 661 815 q 576 687 631 736 q 471 638 522 638 q 406 725 408 638 q 253 621 317 621 q 197 644 219 621 q 174 710 174 667 m 260 708 q 278 681 260 681 q 469 876 336 681 l 479 881 q 486 915 486 901 q 444 956 486 956 q 322 867 383 956 q 260 708 260 778 z "},"":{"ha":665,"x_min":38,"x_max":547,"o":"m 38 229 q 188 318 113 258 q 313 443 264 378 q 322 423 315 440 q 329 399 329 406 q 107 204 329 317 q 335 97 192 149 q 278 61 301 61 q 138 123 225 61 q 38 229 51 185 m 250 229 q 401 318 325 258 q 525 443 476 378 q 535 423 528 440 q 542 399 542 406 q 319 204 542 317 q 547 97 404 149 q 490 61 514 61 q 351 123 438 61 q 250 229 264 185 z "},"":{"ha":939,"x_min":61,"x_max":881,"o":"m 61 236 q 202 308 90 289 q 497 328 314 328 q 710 324 614 328 q 763 401 722 364 q 774 321 763 390 q 881 315 871 318 q 778 265 846 279 q 781 228 778 239 q 776 141 781 174 q 749 78 771 108 q 688 36 728 49 q 708 160 708 133 q 708 205 708 171 q 707 258 707 239 q 647 257 686 257 q 460 254 568 256 q 313 252 351 253 q 208 247 274 251 q 61 236 142 243 z "},"":{"ha":672,"x_min":60,"x_max":581,"o":"m 60 197 q 97 245 68 226 q 165 272 126 264 q 230 282 204 279 q 281 285 256 285 q 581 275 406 285 q 517 222 567 243 q 411 200 468 200 q 336 204 396 200 q 238 208 276 208 q 60 197 143 208 z "},"":{"ha":860,"x_min":122,"x_max":847,"o":"m 122 497 q 180 701 122 615 q 318 824 238 786 q 486 861 399 861 q 655 823 575 861 q 791 701 735 785 q 847 503 847 617 q 788 300 847 386 q 645 176 728 214 q 475 139 563 139 q 309 177 388 139 q 176 299 231 215 q 122 497 122 383 m 179 499 q 260 283 179 368 q 475 197 340 197 q 700 283 610 197 q 790 504 790 368 q 707 719 790 635 q 489 803 624 803 q 267 719 354 803 q 179 499 179 635 m 365 699 q 374 718 365 710 q 394 726 382 726 l 485 726 q 583 697 543 726 q 622 603 622 668 q 542 486 622 507 l 576 419 l 610 358 q 624 331 624 333 q 628 315 628 322 q 617 297 628 306 q 596 288 607 288 q 554 331 575 288 l 478 481 l 433 481 l 433 317 q 424 295 433 303 q 403 288 414 288 q 381 295 390 288 q 371 317 371 303 l 365 699 m 431 536 l 489 536 q 560 603 560 536 q 488 671 560 671 l 431 671 l 431 536 z "},"":{"ha":407,"x_min":156,"x_max":442,"o":"m 156 629 q 207 731 156 681 q 328 781 258 781 q 413 758 385 781 q 442 701 442 736 q 389 599 442 649 q 265 550 336 550 q 183 572 211 550 q 156 629 156 594 m 219 631 q 271 594 219 594 q 344 631 308 594 q 381 701 381 667 q 328 735 381 735 q 253 700 288 735 q 219 631 219 665 z "},"":{"ha":674,"x_min":78,"x_max":589,"o":"m 78 101 q 339 181 89 181 q 589 168 474 181 q 490 131 533 138 q 340 121 446 124 q 78 101 215 118 m 81 393 q 289 468 107 461 l 289 511 q 336 640 289 579 q 356 468 349 571 q 583 456 439 467 q 418 406 501 406 l 356 406 q 338 280 354 326 q 274 217 322 233 q 289 406 289 303 q 81 393 169 406 z "},"":{"ha":551,"x_min":128,"x_max":538,"o":"m 128 490 q 194 535 128 535 q 267 526 225 535 q 388 681 333 583 q 442 858 442 778 q 378 946 442 946 q 319 913 342 946 q 297 826 297 879 q 314 764 297 799 l 288 764 q 222 836 222 779 q 269 943 222 897 q 389 989 317 989 q 485 950 447 989 q 522 854 522 911 q 469 674 522 768 q 338 513 417 579 q 460 493 432 493 q 538 528 479 493 q 501 444 522 471 q 443 418 479 418 q 275 468 375 418 q 193 440 228 440 q 147 454 165 440 q 128 490 128 468 m 179 489 q 190 485 179 485 q 210 490 199 485 q 190 492 201 492 q 179 489 179 492 z "},"":{"ha":464,"x_min":143,"x_max":493,"o":"m 143 544 q 163 602 143 576 q 215 628 182 628 q 257 618 228 628 q 222 554 222 592 q 238 500 222 524 q 282 476 254 476 q 349 516 318 476 q 379 610 379 556 q 271 736 379 710 q 372 811 333 763 q 410 901 410 860 q 394 946 410 929 q 360 963 379 963 q 314 942 333 963 q 294 892 294 921 q 308 850 294 878 q 288 828 301 838 q 264 818 274 818 q 235 840 246 818 q 224 883 224 861 q 267 966 224 935 q 368 997 310 997 q 456 971 418 997 q 493 899 493 944 q 467 813 493 857 q 397 746 440 768 q 481 617 481 704 q 422 492 481 547 q 276 436 364 436 q 177 469 211 436 q 143 544 143 503 z "},"":{"ha":196,"x_min":129,"x_max":314,"o":"m 129 615 q 181 709 129 643 q 272 775 233 775 q 314 726 308 775 q 163 569 196 613 q 138 591 147 576 q 129 615 129 606 z "},"":{"ha":854,"x_min":-40,"x_max":792,"o":"m -40 -325 q 10 -182 -22 -265 l 61 -37 q 108 160 82 24 q 154 486 135 297 q 158 505 156 500 q 167 514 160 510 q 190 518 175 518 q 269 446 264 518 q 207 83 207 158 q 242 25 207 25 q 295 51 267 25 q 353 124 324 78 q 405 212 382 171 q 456 308 428 253 l 493 381 q 575 335 575 368 q 486 58 486 156 q 525 11 486 11 q 641 73 572 11 q 758 235 710 135 l 792 213 q 661 24 746 99 q 496 -50 576 -50 q 414 -19 444 -50 q 383 61 383 11 q 385 83 383 75 q 215 -50 300 -50 q 157 -25 182 -50 q 15 -389 54 -389 q -21 -363 -4 -389 q -40 -325 -37 -337 z "},"":{"ha":953,"x_min":99,"x_max":924,"o":"m 99 467 q 168 641 99 564 q 335 758 238 718 q 542 807 432 797 q 525 981 538 899 q 576 994 553 994 q 613 977 599 994 q 632 927 626 960 q 639 870 638 894 q 640 810 640 846 q 667 806 643 810 q 700 800 692 803 q 686 979 693 932 q 733 994 708 994 q 799 776 783 994 q 924 729 851 761 q 890 697 918 715 q 853 678 863 678 q 801 700 849 678 q 808 515 808 618 q 793 -47 808 1 q 749 -101 783 -81 q 675 -121 715 -121 q 684 0 678 -112 q 696 291 690 113 q 701 617 701 469 q 701 681 701 639 q 700 743 700 724 q 685 747 694 744 q 663 750 675 749 q 646 753 651 751 q 657 325 657 558 q 642 -46 657 0 q 586 -99 631 -76 q 497 -121 542 -121 q 521 211 506 26 q 446 219 483 214 q 358 234 408 224 q 264 264 307 244 q 182 309 221 283 q 121 376 143 335 q 99 467 99 417 z "},"":{"ha":335,"x_min":81,"x_max":215,"o":"m 81 211 q 110 256 81 233 q 169 279 140 279 q 215 239 215 279 q 192 189 215 218 q 138 160 169 160 q 81 211 81 160 z "},"":{"ha":322,"x_min":18,"x_max":293,"o":"m 18 -201 q 63 -142 18 -172 q 118 -204 81 -204 q 191 -162 151 -204 q 231 -89 231 -121 q 208 -67 231 -67 q 150 -92 190 -67 q 99 -118 110 -118 q 78 -106 88 -118 q 69 -83 69 -94 q 100 -38 69 -79 q 146 17 131 3 l 208 65 l 143 -39 q 218 -22 189 -22 q 272 -40 251 -22 q 293 -92 293 -58 q 237 -204 293 -150 q 110 -258 181 -258 q 44 -240 71 -258 q 18 -201 18 -222 z "},"":{"ha":426,"x_min":121,"x_max":408,"o":"m 121 489 q 235 493 196 489 q 285 698 257 546 q 315 861 313 850 q 257 836 271 836 q 226 878 226 836 q 394 996 276 903 q 408 964 408 982 q 353 676 408 951 l 336 593 q 308 501 322 531 q 394 438 381 501 q 322 442 340 442 q 258 439 294 442 q 203 436 221 436 q 162 450 185 436 q 121 489 139 464 z "},"":{"ha":431,"x_min":176,"x_max":529,"o":"m 176 718 q 253 899 176 800 q 418 999 329 999 q 465 981 450 999 q 499 965 488 979 q 511 936 511 951 q 492 883 511 924 q 474 825 474 843 q 492 810 474 810 q 519 813 503 810 q 529 814 526 813 q 513 778 529 790 q 475 765 497 765 q 440 776 456 765 q 363 668 408 708 q 265 628 317 628 q 201 653 225 628 q 176 718 176 678 m 254 728 q 264 696 254 708 q 289 683 274 683 q 355 724 318 683 q 414 818 392 765 q 408 869 408 840 q 417 940 408 919 q 303 856 353 931 q 254 728 254 781 z "},"":{"ha":682,"x_min":93,"x_max":603,"o":"m 93 97 q 321 204 236 149 q 99 399 99 317 q 106 423 99 406 q 115 443 113 440 q 240 318 164 378 q 390 229 315 258 q 290 123 376 185 q 150 61 203 61 q 93 97 126 61 m 306 97 q 533 204 449 149 q 311 399 311 317 q 318 423 311 406 q 328 443 325 440 q 452 318 376 378 q 603 229 528 258 q 502 123 589 185 q 363 61 415 61 q 306 97 339 61 z "},"":{"ha":953,"x_min":72,"x_max":900,"o":"m 72 -121 q 393 356 172 -24 q 690 932 614 736 q 732 970 699 951 q 801 989 765 989 q 828 986 811 989 q 626 594 801 921 q 367 135 451 267 q 215 -56 285 8 q 72 -121 146 -121 m 104 479 q 221 485 190 479 q 272 696 243 539 q 303 861 301 853 q 244 836 261 836 q 214 872 214 836 q 240 893 214 874 l 311 943 q 382 996 354 974 q 396 964 396 983 q 324 588 396 928 q 294 493 310 519 q 382 428 368 493 q 308 432 324 432 q 246 429 283 432 q 186 426 208 426 q 104 479 146 426 m 524 168 q 540 221 524 207 q 843 532 774 417 q 872 503 871 529 q 865 471 872 497 q 842 382 857 444 q 813 242 826 319 l 826 242 q 900 253 831 242 q 801 181 846 181 q 778 -37 778 10 q 690 11 690 -33 q 719 182 690 39 q 674 183 704 183 q 524 168 585 183 m 638 246 q 678 245 646 246 q 735 244 711 244 q 760 358 750 328 l 721 324 q 674 280 697 300 q 638 246 650 260 z "},"":{"ha":1032,"x_min":83,"x_max":932,"o":"m 83 -121 q 406 358 183 -22 q 703 932 628 738 q 753 977 711 954 q 831 1000 794 1000 q 643 608 814 933 q 378 135 472 282 q 227 -56 296 8 q 83 -121 158 -121 m 107 479 q 224 485 193 479 q 275 696 246 539 q 306 861 304 853 q 247 836 264 836 q 217 872 217 836 q 243 893 217 874 l 314 943 q 385 996 357 974 q 399 964 399 983 q 326 588 399 928 q 297 493 313 519 q 385 428 371 493 q 311 432 326 432 q 249 429 286 432 q 189 426 211 426 q 107 479 149 426 m 522 35 q 589 79 522 79 q 661 71 619 79 q 782 225 728 128 q 836 403 836 322 q 772 490 836 490 q 714 457 736 490 q 692 371 692 424 q 708 308 692 344 l 682 308 q 617 381 617 324 q 664 488 617 442 q 783 533 711 533 q 879 494 842 533 q 917 399 917 456 q 864 218 917 313 q 732 57 811 124 q 854 38 826 38 q 932 72 874 38 q 895 -11 917 15 q 838 -37 874 -37 q 669 13 769 -37 q 588 -15 622 -15 q 541 -1 560 -15 q 522 35 522 13 m 574 33 q 585 29 574 29 q 604 35 593 29 q 585 36 596 36 q 574 33 574 36 z "},"":{"ha":1018,"x_min":133,"x_max":967,"o":"m 133 536 q 152 595 133 569 q 206 621 171 621 q 249 613 217 621 q 211 543 211 586 q 230 493 211 515 q 275 471 249 471 q 343 510 313 471 q 374 604 374 550 q 264 732 374 707 q 365 809 325 758 q 406 900 406 860 q 390 945 406 929 q 353 961 374 961 q 307 941 328 961 q 286 894 286 921 q 300 849 286 876 q 281 826 294 836 q 256 817 267 817 q 228 838 239 817 q 214 882 217 858 q 258 966 214 935 q 361 997 303 997 q 450 971 413 997 q 488 896 488 944 q 460 809 488 854 q 390 742 433 764 q 453 685 432 722 q 475 610 475 649 q 416 483 475 540 q 268 426 357 426 q 167 460 200 426 q 133 536 133 493 m 139 -121 q 308 103 228 -12 q 463 354 388 218 l 574 557 q 682 775 610 625 q 757 932 754 925 q 808 978 768 957 q 886 1000 849 1000 q 706 623 868 931 q 431 136 544 315 q 282 -57 349 7 q 139 -121 215 -121 m 590 168 q 607 221 590 207 q 901 528 842 418 l 910 532 q 938 503 938 529 q 931 467 938 493 q 909 380 924 442 q 879 242 894 318 q 967 253 897 242 q 868 181 913 181 q 844 -37 844 10 q 757 11 757 -33 q 786 182 757 39 q 590 168 660 182 m 704 246 q 743 245 711 246 q 801 244 775 244 q 826 358 817 328 q 749 288 782 315 q 704 246 717 260 z "},"":{"ha":607,"x_min":-57,"x_max":458,"o":"m -57 -197 q -35 -105 -57 -147 q 22 -28 -12 -62 l 94 40 q 166 118 132 74 q 217 213 200 163 q 235 294 226 243 q 254 376 243 344 q 301 344 290 358 q 313 299 313 329 q 285 197 313 246 q 219 106 258 147 l 142 24 q 76 -71 103 -18 q 49 -179 49 -124 q 78 -293 49 -253 q 156 -333 108 -333 q 295 -250 231 -333 q 360 -57 360 -167 q 344 38 360 -12 q 433 -1 408 28 q 458 -79 458 -31 q 373 -296 458 -203 q 151 -389 288 -389 q -1 -339 56 -389 q -57 -197 -57 -289 m 231 483 q 256 533 231 511 q 314 556 282 556 q 353 544 338 556 q 369 510 369 532 q 340 463 369 483 q 279 443 311 443 q 231 483 231 443 z "},"":{"ha":876,"x_min":0,"x_max":869,"o":"m 0 -35 q 204 382 0 68 q 0 388 121 388 q 161 478 33 478 q 264 469 189 478 q 554 849 419 694 q 733 1003 689 1003 q 828 949 769 1003 q 697 616 782 914 q 611 150 611 318 q 660 40 611 40 q 844 247 735 40 l 869 221 q 756 31 825 103 q 611 -40 686 -40 q 489 175 489 -40 q 507 347 489 243 q 308 374 436 358 q 64 -121 179 144 q 0 -35 0 -87 m 353 453 q 445 432 385 446 q 521 415 506 418 q 668 881 571 654 q 353 453 544 783 m 583 1260 q 598 1300 585 1286 q 628 1314 611 1314 q 724 1250 667 1314 q 781 1157 781 1186 q 771 1129 781 1144 q 746 1107 761 1114 q 583 1260 678 1188 z "},"":{"ha":876,"x_min":0,"x_max":956,"o":"m 0 -35 q 204 382 0 68 q 0 388 121 388 q 161 478 33 478 q 264 469 189 478 q 554 849 419 694 q 733 1003 689 1003 q 828 949 769 1003 q 697 616 782 914 q 611 150 611 318 q 660 40 611 40 q 844 247 735 40 l 869 221 q 756 31 825 103 q 611 -40 686 -40 q 489 175 489 -40 q 507 347 489 243 q 308 374 436 358 q 64 -121 179 144 q 0 -35 0 -87 m 353 453 q 445 432 385 446 q 521 415 506 418 q 668 881 571 654 q 353 453 544 783 m 771 1154 q 823 1248 771 1182 q 914 1314 875 1314 q 956 1265 950 1314 q 804 1108 838 1151 q 780 1130 789 1115 q 771 1154 771 1144 z "},"":{"ha":876,"x_min":0,"x_max":940,"o":"m 0 -35 q 204 382 0 68 q 0 388 121 388 q 161 478 33 478 q 264 469 189 478 q 554 849 419 694 q 733 1003 689 1003 q 828 949 769 1003 q 697 616 782 914 q 611 150 611 318 q 660 40 611 40 q 844 247 735 40 l 869 221 q 756 31 825 103 q 611 -40 686 -40 q 489 175 489 -40 q 507 347 489 243 q 308 374 436 358 q 64 -121 179 144 q 0 -35 0 -87 m 353 453 q 445 432 385 446 q 521 415 506 418 q 668 881 571 654 q 353 453 544 783 m 646 1183 q 708 1262 646 1221 q 807 1303 771 1303 q 891 1250 842 1303 q 940 1156 940 1197 q 906 1101 940 1119 q 806 1217 874 1156 q 664 1144 742 1196 q 646 1183 646 1156 z "},"":{"ha":876,"x_min":0,"x_max":1004,"o":"m 0 -35 q 204 382 0 68 q 0 388 121 388 q 161 478 33 478 q 264 469 189 478 q 554 849 419 694 q 733 1003 689 1003 q 828 949 769 1003 q 697 616 782 914 q 611 150 611 318 q 660 40 611 40 q 844 247 735 40 l 869 221 q 756 31 825 103 q 611 -40 686 -40 q 489 175 489 -40 q 507 347 489 243 q 308 374 436 358 q 64 -121 179 144 q 0 -35 0 -87 m 353 453 q 445 432 385 446 q 521 415 506 418 q 668 881 571 654 q 353 453 544 783 m 525 1114 q 588 1169 551 1144 q 650 1193 624 1193 q 776 1165 690 1193 q 910 1138 863 1138 q 1004 1147 947 1138 q 876 1072 933 1072 q 742 1099 833 1072 q 611 1125 651 1125 q 525 1114 589 1125 z "},"":{"ha":876,"x_min":0,"x_max":951,"o":"m 0 -35 q 204 382 0 68 q 0 388 121 388 q 161 478 33 478 q 264 469 189 478 q 554 849 419 694 q 733 1003 689 1003 q 828 949 769 1003 q 697 616 782 914 q 611 150 611 318 q 660 40 611 40 q 844 247 735 40 l 869 221 q 756 31 825 103 q 611 -40 686 -40 q 489 175 489 -40 q 507 347 489 243 q 308 374 436 358 q 64 -121 179 144 q 0 -35 0 -87 m 353 453 q 445 432 385 446 q 521 415 506 418 q 668 881 571 654 q 353 453 544 783 m 606 1190 q 636 1236 606 1215 q 699 1257 667 1257 q 749 1213 749 1257 q 722 1165 749 1188 q 665 1143 696 1143 q 623 1155 640 1143 q 606 1190 606 1167 m 807 1163 q 837 1209 807 1189 q 900 1229 867 1229 q 951 1183 951 1229 q 924 1137 951 1158 q 865 1115 897 1115 q 824 1128 842 1115 q 807 1163 807 1140 z "},"":{"ha":876,"x_min":0,"x_max":979,"o":"m 0 -35 q 204 382 0 68 q 0 388 121 388 q 161 478 33 478 q 264 469 189 478 q 554 849 419 694 q 733 1003 689 1003 q 828 949 769 1003 q 697 616 782 914 q 611 150 611 318 q 660 40 611 40 q 844 247 735 40 l 869 221 q 756 31 825 103 q 611 -40 686 -40 q 489 175 489 -40 q 507 347 489 243 q 308 374 436 358 q 64 -121 179 144 q 0 -35 0 -87 m 353 453 q 445 432 385 446 q 521 415 506 418 q 668 881 571 654 q 353 453 544 783 m 693 1168 q 744 1269 693 1219 q 865 1319 796 1319 q 951 1297 922 1319 q 979 1240 979 1275 q 926 1138 979 1188 q 801 1089 872 1089 q 720 1111 747 1089 q 693 1168 693 1133 m 765 1176 q 778 1149 767 1161 q 813 1138 790 1138 q 878 1169 847 1138 q 908 1231 908 1200 q 860 1267 908 1267 q 795 1237 825 1267 q 765 1176 765 1207 z "},"":{"ha":1097,"x_min":-1,"x_max":1196,"o":"m -1 -36 q 203 382 -1 68 q 64 388 119 388 l -1 388 q 161 478 32 478 q 263 469 188 478 q 551 847 417 692 q 733 1003 686 1003 q 1196 971 949 1003 q 938 903 1171 903 q 793 906 885 903 q 685 588 739 797 q 874 569 764 585 q 988 554 985 554 q 729 486 961 486 q 658 488 679 486 q 610 139 610 269 q 614 93 610 131 q 816 74 664 86 q 1014 50 968 61 q 757 -17 990 -17 q 538 -11 596 -17 q 486 175 486 35 q 506 347 486 240 q 307 374 435 358 q 63 -121 178 144 q -1 -36 -1 -87 m 351 453 q 440 433 382 447 q 519 415 497 419 q 667 881 569 654 q 351 453 543 783 z "},"":{"ha":790,"x_min":44,"x_max":801,"o":"m 44 222 q 132 583 44 401 q 358 882 219 765 q 635 999 496 999 q 779 872 779 999 q 724 676 779 782 q 608 571 668 571 q 551 614 574 571 q 653 753 604 672 q 703 883 703 833 q 640 938 703 938 q 433 819 543 938 q 251 529 324 701 q 179 210 179 357 q 229 22 179 99 q 381 -54 279 -54 q 598 33 489 -54 q 765 243 707 121 l 801 219 q 660 24 742 107 q 479 -96 578 -60 l 447 -149 q 522 -132 493 -132 q 576 -150 556 -132 q 597 -201 597 -168 q 541 -314 597 -260 q 414 -368 485 -368 q 349 -350 375 -368 q 322 -311 322 -332 q 367 -251 322 -282 q 422 -314 385 -314 q 495 -272 456 -314 q 535 -199 535 -231 q 513 -176 535 -176 q 454 -202 494 -176 q 403 -228 414 -228 q 383 -216 392 -228 q 374 -193 374 -204 q 394 -161 374 -190 q 432 -111 414 -132 q 347 -121 383 -121 q 122 -20 199 -121 q 44 222 44 81 z "},"":{"ha":740,"x_min":-6,"x_max":763,"o":"m -6 140 q 97 372 -6 265 q 349 499 199 478 q 249 708 249 586 q 334 911 249 824 q 550 999 419 999 q 681 958 635 999 q 726 839 726 917 q 687 692 726 760 q 607 625 647 625 q 540 682 572 625 q 663 868 663 782 q 635 931 663 908 q 563 953 608 953 q 423 876 474 953 q 372 696 372 799 q 475 471 372 550 q 239 348 331 449 q 147 138 147 247 q 192 2 147 63 q 328 -58 236 -58 q 545 31 438 -58 q 713 243 653 119 l 750 219 q 550 -28 668 65 q 290 -121 432 -121 q 77 -46 160 -121 q -6 140 -6 29 m 565 1260 q 580 1300 567 1286 q 610 1314 593 1314 q 706 1250 649 1314 q 763 1157 763 1186 q 753 1129 763 1144 q 728 1107 743 1114 q 565 1260 660 1188 z "},"":{"ha":740,"x_min":-6,"x_max":832,"o":"m -6 140 q 97 372 -6 265 q 349 499 199 478 q 249 708 249 586 q 334 911 249 824 q 550 999 419 999 q 681 958 635 999 q 726 839 726 917 q 687 692 726 760 q 607 625 647 625 q 540 682 572 625 q 663 868 663 782 q 635 931 663 908 q 563 953 608 953 q 423 876 474 953 q 372 696 372 799 q 475 471 372 550 q 239 348 331 449 q 147 138 147 247 q 192 2 147 63 q 328 -58 236 -58 q 545 31 438 -58 q 713 243 653 119 l 750 219 q 550 -28 668 65 q 290 -121 432 -121 q 77 -46 160 -121 q -6 140 -6 29 m 647 1154 q 699 1248 647 1182 q 790 1314 751 1314 q 832 1265 826 1314 q 681 1108 714 1151 q 656 1130 665 1115 q 647 1154 647 1144 z "},"":{"ha":740,"x_min":-6,"x_max":825,"o":"m -6 140 q 97 372 -6 265 q 349 499 199 478 q 249 708 249 586 q 334 911 249 824 q 550 999 419 999 q 681 958 635 999 q 726 839 726 917 q 687 692 726 760 q 607 625 647 625 q 540 682 572 625 q 663 868 663 782 q 635 931 663 908 q 563 953 608 953 q 423 876 474 953 q 372 696 372 799 q 475 471 372 550 q 239 348 331 449 q 147 138 147 247 q 192 2 147 63 q 328 -58 236 -58 q 545 31 438 -58 q 713 243 653 119 l 750 219 q 550 -28 668 65 q 290 -121 432 -121 q 77 -46 160 -121 q -6 140 -6 29 m 531 1183 q 593 1262 531 1221 q 692 1303 656 1303 q 776 1250 726 1303 q 825 1156 825 1197 q 790 1101 825 1119 q 690 1217 758 1156 q 549 1144 626 1196 q 531 1183 531 1156 z "},"":{"ha":740,"x_min":-6,"x_max":842,"o":"m -6 140 q 97 372 -6 265 q 349 499 199 478 q 249 708 249 586 q 334 911 249 824 q 550 999 419 999 q 681 958 635 999 q 726 839 726 917 q 687 692 726 760 q 607 625 647 625 q 540 682 572 625 q 663 868 663 782 q 635 931 663 908 q 563 953 608 953 q 423 876 474 953 q 372 696 372 799 q 475 471 372 550 q 239 348 331 449 q 147 138 147 247 q 192 2 147 63 q 328 -58 236 -58 q 545 31 438 -58 q 713 243 653 119 l 750 219 q 550 -28 668 65 q 290 -121 432 -121 q 77 -46 160 -121 q -6 140 -6 29 m 496 1190 q 526 1236 496 1215 q 589 1257 557 1257 q 639 1213 639 1257 q 613 1165 639 1188 q 556 1143 586 1143 q 513 1155 531 1143 q 496 1190 496 1167 m 697 1163 q 727 1209 697 1189 q 790 1229 757 1229 q 842 1183 842 1229 q 815 1137 842 1158 q 756 1115 788 1115 q 715 1128 732 1115 q 697 1163 697 1140 z "},"":{"ha":699,"x_min":-25,"x_max":835,"o":"m -25 -122 q -2 -52 -21 -79 q 53 -12 17 -25 q 124 4 89 0 q 214 8 160 8 q 353 490 271 131 q 453 901 435 849 q 124 868 281 899 q 210 968 138 938 q 432 999 283 999 q 835 968 599 999 q 674 903 767 903 q 524 901 568 903 l 515 860 q 465 580 513 843 q 394 228 417 317 q 294 6 353 61 q 425 -7 313 4 q 608 -19 538 -18 q 421 -97 526 -97 q 152 -101 228 -97 q -25 -122 76 -106 m 399 1260 q 413 1300 400 1286 q 443 1314 426 1314 q 539 1250 482 1314 q 596 1157 596 1186 q 586 1129 596 1144 q 561 1107 576 1114 q 399 1260 493 1188 z "},"":{"ha":699,"x_min":-25,"x_max":835,"o":"m -25 -122 q -2 -52 -21 -79 q 53 -12 17 -25 q 124 4 89 0 q 214 8 160 8 q 353 490 271 131 q 453 901 435 849 q 124 868 281 899 q 210 968 138 938 q 432 999 283 999 q 835 968 599 999 q 674 903 767 903 q 524 901 568 903 l 515 860 q 465 580 513 843 q 394 228 417 317 q 294 6 353 61 q 425 -7 313 4 q 608 -19 538 -18 q 421 -97 526 -97 q 152 -101 228 -97 q -25 -122 76 -106 m 515 1154 q 567 1248 515 1182 q 658 1314 619 1314 q 700 1265 694 1314 q 549 1108 582 1151 q 524 1130 533 1115 q 515 1154 515 1144 z "},"":{"ha":699,"x_min":-25,"x_max":835,"o":"m -25 -122 q -2 -52 -21 -79 q 53 -12 17 -25 q 124 4 89 0 q 214 8 160 8 q 353 490 271 131 q 453 901 435 849 q 124 868 281 899 q 210 968 138 938 q 432 999 283 999 q 835 968 599 999 q 674 903 767 903 q 524 901 568 903 l 515 860 q 465 580 513 843 q 394 228 417 317 q 294 6 353 61 q 425 -7 313 4 q 608 -19 538 -18 q 421 -97 526 -97 q 152 -101 228 -97 q -25 -122 76 -106 m 408 1183 q 471 1262 408 1221 q 569 1303 533 1303 q 653 1250 604 1303 q 703 1156 703 1197 q 668 1101 703 1119 q 568 1217 636 1156 q 426 1144 504 1196 q 408 1183 408 1156 z "},"":{"ha":699,"x_min":-25,"x_max":835,"o":"m -25 -122 q -2 -52 -21 -79 q 53 -12 17 -25 q 124 4 89 0 q 214 8 160 8 q 353 490 271 131 q 453 901 435 849 q 124 868 281 899 q 210 968 138 938 q 432 999 283 999 q 835 968 599 999 q 674 903 767 903 q 524 901 568 903 l 515 860 q 465 580 513 843 q 394 228 417 317 q 294 6 353 61 q 425 -7 313 4 q 608 -19 538 -18 q 421 -97 526 -97 q 152 -101 228 -97 q -25 -122 76 -106 m 407 1190 q 438 1236 407 1215 q 500 1257 468 1257 q 550 1213 550 1257 q 524 1165 550 1188 q 467 1143 497 1143 q 424 1155 442 1143 q 407 1190 407 1167 m 608 1163 q 638 1209 608 1189 q 701 1229 668 1229 q 753 1183 753 1229 q 726 1137 753 1158 q 667 1115 699 1115 q 626 1128 643 1115 q 608 1163 608 1140 z "},"":{"ha":956,"x_min":39,"x_max":953,"o":"m 39 368 q 236 456 79 446 q 335 746 296 647 q 356 796 344 771 q 396 851 368 821 q 453 881 424 881 q 506 861 476 881 q 354 458 426 683 q 608 444 438 458 q 432 388 525 388 l 332 388 q 210 -61 253 140 q 263 -65 242 -65 q 540 37 407 -65 q 751 297 672 139 q 829 619 829 456 q 749 862 829 781 q 532 943 669 943 q 306 872 396 943 q 217 693 217 800 q 229 626 217 656 q 118 715 118 626 q 256 908 118 817 q 576 1000 393 1000 q 861 890 769 1000 q 953 604 953 781 q 893 324 953 460 q 737 91 833 188 q 516 -63 640 -6 q 267 -121 392 -121 q 97 -51 150 -121 q 214 386 132 121 q 39 368 160 385 z "},"":{"ha":936,"x_min":78,"x_max":983,"o":"m 78 -121 l 372 856 q 382 910 382 894 q 364 929 382 929 q 261 850 308 929 q 214 704 214 771 q 228 639 214 671 q 117 729 117 639 q 218 910 117 819 q 404 1000 319 1000 q 448 992 428 1000 q 484 963 468 983 q 513 924 500 943 q 536 867 525 904 q 554 804 547 831 q 570 728 561 778 q 583 650 579 679 q 596 565 588 621 q 660 158 639 267 q 710 369 676 226 l 765 606 q 817 792 788 696 q 869 928 846 888 q 982 1001 911 1001 q 806 412 901 792 q 710 -121 710 32 q 624 -95 656 -121 q 576 -1 592 -69 q 433 771 571 21 q 213 30 271 181 q 78 -121 154 -121 m 504 1114 q 567 1169 531 1144 q 629 1193 603 1193 q 756 1165 669 1193 q 889 1138 842 1138 q 983 1147 926 1138 q 856 1072 913 1072 q 722 1099 813 1072 q 590 1125 631 1125 q 504 1114 568 1125 z "},"":{"ha":910,"x_min":44,"x_max":894,"o":"m 44 228 q 131 583 44 403 q 361 881 218 763 q 653 999 504 999 q 747 960 710 999 q 707 963 725 963 q 468 846 590 963 q 267 554 346 729 q 189 219 189 379 q 237 23 189 100 q 385 -54 285 -54 q 560 17 476 -54 q 700 197 644 88 q 789 433 756 306 q 822 675 822 560 q 808 813 822 751 q 760 875 793 875 q 656 773 715 875 q 579 582 597 671 q 492 663 492 600 q 588 835 492 738 q 763 932 683 932 q 829 903 801 932 q 870 824 857 874 q 889 726 883 775 q 894 625 894 678 q 840 310 894 456 q 703 74 786 165 q 523 -69 619 -18 q 336 -121 426 -121 q 128 -26 211 -121 q 44 228 44 69 m 607 1260 q 622 1300 608 1286 q 651 1314 635 1314 q 747 1250 690 1314 q 804 1157 804 1186 q 794 1129 804 1144 q 769 1107 785 1114 q 607 1260 701 1188 z "},"":{"ha":910,"x_min":44,"x_max":894,"o":"m 44 228 q 131 583 44 403 q 361 881 218 763 q 653 999 504 999 q 747 960 710 999 q 707 963 725 963 q 468 846 590 963 q 267 554 346 729 q 189 219 189 379 q 237 23 189 100 q 385 -54 285 -54 q 560 17 476 -54 q 700 197 644 88 q 789 433 756 306 q 822 675 822 560 q 808 813 822 751 q 760 875 793 875 q 656 773 715 875 q 579 582 597 671 q 492 663 492 600 q 588 835 492 738 q 763 932 683 932 q 829 903 801 932 q 870 824 857 874 q 889 726 883 775 q 894 625 894 678 q 840 310 894 456 q 703 74 786 165 q 523 -69 619 -18 q 336 -121 426 -121 q 128 -26 211 -121 q 44 228 44 69 m 669 1154 q 722 1248 669 1182 q 813 1314 774 1314 q 854 1265 849 1314 q 703 1108 736 1151 q 678 1130 688 1115 q 669 1154 669 1144 z "},"":{"ha":910,"x_min":44,"x_max":894,"o":"m 44 228 q 131 583 44 403 q 361 881 218 763 q 653 999 504 999 q 747 960 710 999 q 707 963 725 963 q 468 846 590 963 q 267 554 346 729 q 189 219 189 379 q 237 23 189 100 q 385 -54 285 -54 q 560 17 476 -54 q 700 197 644 88 q 789 433 756 306 q 822 675 822 560 q 808 813 822 751 q 760 875 793 875 q 656 773 715 875 q 579 582 597 671 q 492 663 492 600 q 588 835 492 738 q 763 932 683 932 q 829 903 801 932 q 870 824 857 874 q 889 726 883 775 q 894 625 894 678 q 840 310 894 456 q 703 74 786 165 q 523 -69 619 -18 q 336 -121 426 -121 q 128 -26 211 -121 q 44 228 44 69 m 586 1183 q 649 1262 586 1221 q 747 1303 711 1303 q 831 1250 782 1303 q 881 1156 881 1197 q 846 1101 881 1119 q 746 1217 814 1156 q 604 1144 682 1196 q 586 1183 586 1156 z "},"":{"ha":910,"x_min":44,"x_max":1025,"o":"m 44 228 q 131 583 44 403 q 361 881 218 763 q 653 999 504 999 q 747 960 710 999 q 707 963 725 963 q 468 846 590 963 q 267 554 346 729 q 189 219 189 379 q 237 23 189 100 q 385 -54 285 -54 q 560 17 476 -54 q 700 197 644 88 q 789 433 756 306 q 822 675 822 560 q 808 813 822 751 q 760 875 793 875 q 656 773 715 875 q 579 582 597 671 q 492 663 492 600 q 588 835 492 738 q 763 932 683 932 q 829 903 801 932 q 870 824 857 874 q 889 726 883 775 q 894 625 894 678 q 840 310 894 456 q 703 74 786 165 q 523 -69 619 -18 q 336 -121 426 -121 q 128 -26 211 -121 q 44 228 44 69 m 546 1114 q 608 1169 572 1144 q 671 1193 644 1193 q 797 1165 711 1193 q 931 1138 883 1138 q 1025 1147 968 1138 q 897 1072 954 1072 q 763 1099 854 1072 q 632 1125 672 1125 q 546 1114 610 1125 z "},"":{"ha":910,"x_min":44,"x_max":907,"o":"m 44 228 q 131 583 44 403 q 361 881 218 763 q 653 999 504 999 q 747 960 710 999 q 707 963 725 963 q 468 846 590 963 q 267 554 346 729 q 189 219 189 379 q 237 23 189 100 q 385 -54 285 -54 q 560 17 476 -54 q 700 197 644 88 q 789 433 756 306 q 822 675 822 560 q 808 813 822 751 q 760 875 793 875 q 656 773 715 875 q 579 582 597 671 q 492 663 492 600 q 588 835 492 738 q 763 932 683 932 q 829 903 801 932 q 870 824 857 874 q 889 726 883 775 q 894 625 894 678 q 840 310 894 456 q 703 74 786 165 q 523 -69 619 -18 q 336 -121 426 -121 q 128 -26 211 -121 q 44 228 44 69 m 561 1190 q 592 1236 561 1215 q 654 1257 622 1257 q 704 1213 704 1257 q 678 1165 704 1188 q 621 1143 651 1143 q 578 1155 596 1143 q 561 1190 561 1167 m 763 1163 q 792 1209 763 1189 q 856 1229 822 1229 q 907 1183 907 1229 q 880 1137 907 1158 q 821 1115 853 1115 q 780 1128 797 1115 q 763 1163 763 1140 z "},"":{"ha":563,"x_min":81,"x_max":451,"o":"m 81 64 q 194 244 81 121 q 100 396 100 342 q 113 436 100 411 q 244 292 165 369 q 429 447 339 381 q 406 366 424 403 q 374 313 388 329 q 331 271 360 296 q 300 243 303 246 l 368 181 q 451 28 431 121 q 251 190 349 103 l 247 194 q 94 26 158 111 q 81 64 81 49 z "},"":{"ha":908,"x_min":42,"x_max":986,"o":"m 42 231 q 130 583 42 403 q 358 880 218 763 q 639 997 499 997 q 726 961 700 997 l 707 961 q 467 844 589 961 q 266 553 344 728 q 188 219 188 379 q 224 39 188 110 q 794 838 435 294 q 758 874 779 874 q 654 770 714 874 q 576 581 594 667 q 490 661 490 600 q 586 833 490 736 q 757 931 682 931 q 833 892 801 931 q 879 919 844 907 q 946 932 914 932 q 986 928 963 932 q 881 776 976 915 q 894 633 894 715 q 859 369 894 493 q 765 157 824 244 q 633 5 707 69 q 484 -91 560 -60 q 338 -122 408 -122 q 218 -97 278 -122 q 97 -140 153 -140 q 44 -133 79 -140 q 144 -47 97 -99 q 42 231 42 51 m 293 -35 q 379 -56 332 -56 q 558 16 474 -56 q 699 198 643 88 q 788 439 756 308 q 821 690 821 569 l 376 64 q 293 -35 328 -1 z "},"":{"ha":1042,"x_min":46,"x_max":1061,"o":"m 46 744 q 129 917 46 835 q 326 999 213 999 q 488 819 488 999 q 404 447 488 715 q 325 104 325 196 q 440 -47 325 -47 q 574 16 511 -47 q 671 156 636 79 q 725 315 706 233 l 763 464 l 800 611 q 844 764 826 710 l 886 879 q 931 970 910 942 q 972 999 953 999 q 1061 944 1003 999 q 974 767 1035 925 q 858 399 913 608 q 804 61 804 189 q 833 -52 804 -24 q 935 -81 861 -81 q 884 -122 919 -106 q 817 -137 849 -137 q 728 -92 765 -137 q 692 18 692 -47 q 694 90 692 29 q 399 -122 579 -122 q 253 -67 306 -122 q 201 89 201 -11 q 285 446 201 189 q 368 817 368 703 q 293 942 368 942 q 190 867 228 942 q 151 726 151 792 q 169 638 151 683 q 46 744 46 638 m 586 1260 q 601 1300 588 1286 q 631 1314 614 1314 q 726 1250 669 1314 q 783 1157 783 1186 q 774 1129 783 1144 q 749 1107 764 1114 q 586 1260 681 1188 z "},"":{"ha":1042,"x_min":46,"x_max":1061,"o":"m 46 744 q 129 917 46 835 q 326 999 213 999 q 488 819 488 999 q 404 447 488 715 q 325 104 325 196 q 440 -47 325 -47 q 574 16 511 -47 q 671 156 636 79 q 725 315 706 233 l 763 464 l 800 611 q 844 764 826 710 l 886 879 q 931 970 910 942 q 972 999 953 999 q 1061 944 1003 999 q 974 767 1035 925 q 858 399 913 608 q 804 61 804 189 q 833 -52 804 -24 q 935 -81 861 -81 q 884 -122 919 -106 q 817 -137 849 -137 q 728 -92 765 -137 q 692 18 692 -47 q 694 90 692 29 q 399 -122 579 -122 q 253 -67 306 -122 q 201 89 201 -11 q 285 446 201 189 q 368 817 368 703 q 293 942 368 942 q 190 867 228 942 q 151 726 151 792 q 169 638 151 683 q 46 744 46 638 m 732 1154 q 784 1248 732 1182 q 875 1314 836 1314 q 917 1265 911 1314 q 765 1108 799 1151 q 741 1130 750 1115 q 732 1154 732 1144 z "},"":{"ha":1042,"x_min":46,"x_max":1061,"o":"m 46 744 q 129 917 46 835 q 326 999 213 999 q 488 819 488 999 q 404 447 488 715 q 325 104 325 196 q 440 -47 325 -47 q 574 16 511 -47 q 671 156 636 79 q 725 315 706 233 l 763 464 l 800 611 q 844 764 826 710 l 886 879 q 931 970 910 942 q 972 999 953 999 q 1061 944 1003 999 q 974 767 1035 925 q 858 399 913 608 q 804 61 804 189 q 833 -52 804 -24 q 935 -81 861 -81 q 884 -122 919 -106 q 817 -137 849 -137 q 728 -92 765 -137 q 692 18 692 -47 q 694 90 692 29 q 399 -122 579 -122 q 253 -67 306 -122 q 201 89 201 -11 q 285 446 201 189 q 368 817 368 703 q 293 942 368 942 q 190 867 228 942 q 151 726 151 792 q 169 638 151 683 q 46 744 46 638 m 621 1183 q 683 1262 621 1221 q 782 1303 746 1303 q 866 1250 817 1303 q 915 1156 915 1197 q 881 1101 915 1119 q 781 1217 849 1156 q 639 1144 717 1196 q 621 1183 621 1156 z "},"":{"ha":1042,"x_min":46,"x_max":1061,"o":"m 46 744 q 129 917 46 835 q 326 999 213 999 q 488 819 488 999 q 404 447 488 715 q 325 104 325 196 q 440 -47 325 -47 q 574 16 511 -47 q 671 156 636 79 q 725 315 706 233 l 763 464 l 800 611 q 844 764 826 710 l 886 879 q 931 970 910 942 q 972 999 953 999 q 1061 944 1003 999 q 974 767 1035 925 q 858 399 913 608 q 804 61 804 189 q 833 -52 804 -24 q 935 -81 861 -81 q 884 -122 919 -106 q 817 -137 849 -137 q 728 -92 765 -137 q 692 18 692 -47 q 694 90 692 29 q 399 -122 579 -122 q 253 -67 306 -122 q 201 89 201 -11 q 285 446 201 189 q 368 817 368 703 q 293 942 368 942 q 190 867 228 942 q 151 726 151 792 q 169 638 151 683 q 46 744 46 638 m 594 1190 q 625 1236 594 1215 q 688 1257 656 1257 q 738 1213 738 1257 q 711 1165 738 1188 q 654 1143 685 1143 q 612 1155 629 1143 q 594 1190 594 1167 m 796 1163 q 826 1209 796 1189 q 889 1229 856 1229 q 940 1183 940 1229 q 913 1137 940 1158 q 854 1115 886 1115 q 813 1128 831 1115 q 796 1163 796 1140 z "},"":{"ha":981,"x_min":44,"x_max":1057,"o":"m 44 744 q 127 917 44 835 q 325 1000 210 1000 q 446 957 404 1000 q 488 847 488 914 q 449 660 488 799 q 399 407 399 481 q 497 276 399 276 q 663 372 586 276 q 788 610 739 467 l 815 701 l 849 808 q 881 901 863 853 q 921 974 900 949 q 963 1000 942 1000 q 1057 947 1004 1000 q 949 727 985 836 q 828 268 913 618 q 788 119 807 182 q 732 -19 768 57 q 653 -144 696 -96 q 544 -226 611 -193 q 397 -260 478 -260 q 253 -224 308 -260 q 197 -122 197 -187 q 225 -44 197 -78 q 303 1 253 -10 q 288 -93 288 -67 q 414 -211 288 -211 q 548 -165 492 -211 q 635 -41 604 -119 q 683 111 665 38 q 716 274 701 185 q 742 399 731 364 q 451 201 619 201 q 322 250 364 201 q 281 379 281 299 q 325 615 281 449 q 369 842 369 782 q 294 942 369 942 q 189 870 226 942 q 151 715 151 799 q 168 638 151 682 q 44 744 44 638 m 706 1154 q 758 1248 706 1182 q 849 1314 810 1314 q 890 1265 885 1314 q 739 1108 772 1151 q 715 1130 724 1115 q 706 1154 706 1144 z "},"":{"ha":754,"x_min":68,"x_max":796,"o":"m 68 -42 q 86 36 68 -18 q 336 753 228 478 q 243 724 289 743 q 171 692 197 706 q 138 678 144 678 q 103 697 125 678 q 82 732 82 717 q 360 807 244 796 q 377 851 365 819 q 398 903 389 882 q 421 947 407 924 q 452 983 435 971 q 490 994 469 994 q 535 969 513 994 q 464 807 494 889 q 698 719 600 789 q 796 529 796 649 q 756 399 796 457 q 657 308 715 342 q 523 253 599 275 q 388 222 447 231 q 276 211 329 213 q 228 38 258 150 q 185 -121 199 -75 q 104 -98 140 -121 q 68 -42 68 -75 m 289 258 q 567 356 453 279 q 682 558 682 433 q 613 705 682 656 q 444 758 544 754 q 289 258 375 569 z "},"":{"ha":654,"x_min":-60,"x_max":576,"o":"m -60 -160 q -21 -52 -39 -133 q 14 132 -3 29 l 49 357 q 99 592 68 478 q 169 801 129 707 q 271 951 208 894 q 411 1008 333 1008 q 529 965 482 1008 q 576 844 576 921 q 506 663 576 749 q 340 522 436 578 q 492 411 438 493 q 546 224 546 329 q 474 -8 546 97 q 300 -114 403 -114 q 196 -60 226 -114 q 165 74 165 -6 q 189 197 165 147 q 258 247 213 247 q 313 240 276 247 q 263 165 283 225 q 242 36 242 106 q 286 -67 242 -67 q 383 30 332 -67 q 433 228 433 126 q 318 479 433 383 q 285 525 285 506 q 322 576 285 544 q 397 647 369 618 q 453 731 425 676 q 481 844 481 786 q 400 951 481 951 q 271 845 322 951 q 193 583 219 739 l 139 268 q 63 -15 113 108 q -60 -160 14 -137 z "},"":{"ha":617,"x_min":-36,"x_max":676,"o":"m -36 57 q 21 236 -36 138 q 172 406 78 335 q 357 476 265 476 q 459 445 418 476 q 500 365 500 414 q 421 299 500 301 q 471 257 471 283 q 431 174 471 242 q 392 74 392 107 q 433 24 392 24 q 533 78 472 24 q 650 240 593 132 l 676 214 q 549 28 625 99 q 394 -42 472 -42 q 309 -5 339 -42 q 279 79 279 32 q 172 -31 217 4 q 78 -65 128 -65 q -3 -33 29 -65 q -36 57 -36 -1 m 75 50 q 107 6 75 6 q 145 16 125 6 q 189 47 165 26 l 232 89 q 279 143 253 110 l 321 196 l 361 250 l 394 296 q 406 303 399 303 l 408 303 l 411 301 q 418 353 418 324 q 360 425 418 425 q 172 289 268 425 q 75 50 75 153 m 249 721 q 263 761 250 747 q 293 775 276 775 q 389 711 332 775 q 446 618 446 647 q 436 590 446 606 q 411 568 426 575 q 249 721 343 649 z "},"":{"ha":617,"x_min":-36,"x_max":676,"o":"m -36 57 q 21 236 -36 138 q 172 406 78 335 q 357 476 265 476 q 459 445 418 476 q 500 365 500 414 q 421 299 500 301 q 471 257 471 283 q 431 174 471 242 q 392 74 392 107 q 433 24 392 24 q 533 78 472 24 q 650 240 593 132 l 676 214 q 549 28 625 99 q 394 -42 472 -42 q 309 -5 339 -42 q 279 79 279 32 q 172 -31 217 4 q 78 -65 128 -65 q -3 -33 29 -65 q -36 57 -36 -1 m 75 50 q 107 6 75 6 q 145 16 125 6 q 189 47 165 26 l 232 89 q 279 143 253 110 l 321 196 l 361 250 l 394 296 q 406 303 399 303 l 408 303 l 411 301 q 418 353 418 324 q 360 425 418 425 q 172 289 268 425 q 75 50 75 153 m 381 615 q 433 709 381 643 q 524 775 485 775 q 565 726 560 775 q 414 569 447 613 q 390 591 399 576 q 381 615 381 606 z "},"":{"ha":617,"x_min":-36,"x_max":676,"o":"m -36 57 q 21 236 -36 138 q 172 406 78 335 q 357 476 265 476 q 459 445 418 476 q 500 365 500 414 q 421 299 500 301 q 471 257 471 283 q 431 174 471 242 q 392 74 392 107 q 433 24 392 24 q 533 78 472 24 q 650 240 593 132 l 676 214 q 549 28 625 99 q 394 -42 472 -42 q 309 -5 339 -42 q 279 79 279 32 q 172 -31 217 4 q 78 -65 128 -65 q -3 -33 29 -65 q -36 57 -36 -1 m 75 50 q 107 6 75 6 q 145 16 125 6 q 189 47 165 26 l 232 89 q 279 143 253 110 l 321 196 l 361 250 l 394 296 q 406 303 399 303 l 408 303 l 411 301 q 418 353 418 324 q 360 425 418 425 q 172 289 268 425 q 75 50 75 153 m 325 644 q 388 723 325 682 q 486 764 450 764 q 570 711 521 764 q 619 617 619 658 q 585 563 619 581 q 485 678 553 617 q 343 606 421 657 q 325 644 325 617 z "},"":{"ha":617,"x_min":-36,"x_max":685,"o":"m -36 57 q 21 236 -36 138 q 172 406 78 335 q 357 476 265 476 q 459 445 418 476 q 500 365 500 414 q 421 299 500 301 q 471 257 471 283 q 431 174 471 242 q 392 74 392 107 q 433 24 392 24 q 533 78 472 24 q 650 240 593 132 l 676 214 q 549 28 625 99 q 394 -42 472 -42 q 309 -5 339 -42 q 279 79 279 32 q 172 -31 217 4 q 78 -65 128 -65 q -3 -33 29 -65 q -36 57 -36 -1 m 75 50 q 107 6 75 6 q 145 16 125 6 q 189 47 165 26 l 232 89 q 279 143 253 110 l 321 196 l 361 250 l 394 296 q 406 303 399 303 l 408 303 l 411 301 q 418 353 418 324 q 360 425 418 425 q 172 289 268 425 q 75 50 75 153 m 206 575 q 268 630 232 606 q 331 654 304 654 q 457 626 371 654 q 590 599 543 599 q 685 608 628 599 q 557 533 614 533 q 423 560 514 533 q 292 586 332 586 q 206 575 269 586 z "},"":{"ha":617,"x_min":-36,"x_max":676,"o":"m -36 57 q 21 236 -36 138 q 172 406 78 335 q 357 476 265 476 q 459 445 418 476 q 500 365 500 414 q 421 299 500 301 q 471 257 471 283 q 431 174 471 242 q 392 74 392 107 q 433 24 392 24 q 533 78 472 24 q 650 240 593 132 l 676 214 q 549 28 625 99 q 394 -42 472 -42 q 309 -5 339 -42 q 279 79 279 32 q 172 -31 217 4 q 78 -65 128 -65 q -3 -33 29 -65 q -36 57 -36 -1 m 75 50 q 107 6 75 6 q 145 16 125 6 q 189 47 165 26 l 232 89 q 279 143 253 110 l 321 196 l 361 250 l 394 296 q 406 303 399 303 l 408 303 l 411 301 q 418 353 418 324 q 360 425 418 425 q 172 289 268 425 q 75 50 75 153 m 300 651 q 331 697 300 676 q 393 718 361 718 q 443 674 443 718 q 417 626 443 649 q 360 604 390 604 q 317 616 335 604 q 300 651 300 628 m 501 624 q 531 670 501 650 q 594 690 561 690 q 646 644 646 690 q 619 598 646 619 q 560 576 592 576 q 519 589 536 576 q 501 624 501 601 z "},"":{"ha":617,"x_min":-36,"x_max":676,"o":"m -36 57 q 21 236 -36 138 q 172 406 78 335 q 357 476 265 476 q 459 445 418 476 q 500 365 500 414 q 421 299 500 301 q 471 257 471 283 q 431 174 471 242 q 392 74 392 107 q 433 24 392 24 q 533 78 472 24 q 650 240 593 132 l 676 214 q 549 28 625 99 q 394 -42 472 -42 q 309 -5 339 -42 q 279 79 279 32 q 172 -31 217 4 q 78 -65 128 -65 q -3 -33 29 -65 q -36 57 -36 -1 m 75 50 q 107 6 75 6 q 145 16 125 6 q 189 47 165 26 l 232 89 q 279 143 253 110 l 321 196 l 361 250 l 394 296 q 406 303 399 303 l 408 303 l 411 301 q 418 353 418 324 q 360 425 418 425 q 172 289 268 425 q 75 50 75 153 m 358 629 q 410 731 358 681 q 531 781 461 781 q 616 758 588 781 q 644 701 644 736 q 591 599 644 649 q 467 550 538 550 q 385 572 413 550 q 358 629 358 594 m 431 638 q 444 610 432 622 q 478 599 456 599 q 543 630 513 599 q 574 692 574 661 q 525 728 574 728 q 460 698 490 728 q 431 638 431 668 z "},"":{"ha":772,"x_min":-36,"x_max":835,"o":"m -36 57 q 22 236 -36 138 q 174 406 79 335 q 360 478 268 478 q 461 426 435 478 q 644 500 558 500 q 743 408 743 500 q 635 231 743 308 q 393 139 526 153 q 390 100 390 125 q 497 -1 396 -1 q 668 67 582 -1 q 808 239 754 136 l 835 217 q 677 15 778 90 q 468 -61 576 -61 q 342 -22 390 -61 q 285 78 294 17 q 81 -65 168 -65 q -3 -33 31 -65 q -36 57 -36 -1 m 81 54 q 111 11 81 11 q 283 146 175 11 q 415 383 303 274 q 357 421 404 421 q 229 356 296 421 q 122 204 163 290 q 81 54 81 118 m 407 190 q 583 288 503 226 q 664 418 664 349 q 642 438 664 438 q 510 360 581 438 q 407 190 439 283 z "},"":{"ha":463,"x_min":-8,"x_max":522,"o":"m -8 106 q 89 356 -8 242 q 300 469 186 469 q 383 442 356 469 q 410 372 410 414 q 390 295 410 331 q 340 260 369 260 q 297 286 314 260 q 342 390 342 317 q 315 414 342 414 q 173 303 247 414 q 99 97 99 192 q 197 -7 99 -7 q 365 62 279 -7 q 494 240 450 131 l 522 215 q 314 -32 457 50 l 263 -114 q 338 -97 308 -97 q 392 -115 371 -97 q 413 -167 413 -133 q 356 -279 413 -225 q 229 -333 300 -333 q 164 -315 190 -333 q 138 -276 138 -297 q 182 -217 138 -247 q 238 -279 200 -279 q 310 -237 271 -279 q 350 -164 350 -196 q 328 -142 350 -142 q 269 -167 310 -142 q 218 -193 229 -193 q 198 -181 207 -193 q 189 -158 189 -169 q 219 -113 189 -154 q 265 -58 250 -72 l 274 -51 q 157 -78 213 -78 q 37 -31 82 -78 q -8 106 -8 15 z "},"":{"ha":474,"x_min":-24,"x_max":535,"o":"m -24 107 q 94 367 -24 233 q 336 501 211 501 q 438 408 438 501 q 329 231 438 308 q 88 139 221 153 q 85 107 85 125 q 87 81 85 93 q 98 47 89 68 q 131 12 107 25 q 192 -1 156 -1 q 365 67 276 -1 q 507 239 453 136 l 535 217 q 376 15 479 92 q 161 -61 272 -61 q 25 -14 74 -61 q -24 107 -24 33 m 103 190 q 273 271 183 200 q 363 415 363 342 q 339 442 363 442 q 206 361 278 442 q 103 190 133 281 m 247 721 q 262 761 249 747 q 292 775 275 775 q 388 711 331 775 q 444 618 444 647 q 435 590 444 606 q 410 568 425 575 q 247 721 342 649 z "},"":{"ha":474,"x_min":-24,"x_max":564,"o":"m -24 107 q 94 367 -24 233 q 336 501 211 501 q 438 408 438 501 q 329 231 438 308 q 88 139 221 153 q 85 107 85 125 q 87 81 85 93 q 98 47 89 68 q 131 12 107 25 q 192 -1 156 -1 q 365 67 276 -1 q 507 239 453 136 l 535 217 q 376 15 479 92 q 161 -61 272 -61 q 25 -14 74 -61 q -24 107 -24 33 m 103 190 q 273 271 183 200 q 363 415 363 342 q 339 442 363 442 q 206 361 278 442 q 103 190 133 281 m 379 615 q 431 709 379 643 q 522 775 483 775 q 564 726 558 775 q 413 569 446 613 q 388 591 397 576 q 379 615 379 606 z "},"":{"ha":474,"x_min":-24,"x_max":563,"o":"m -24 107 q 94 367 -24 233 q 336 501 211 501 q 438 408 438 501 q 329 231 438 308 q 88 139 221 153 q 85 107 85 125 q 87 81 85 93 q 98 47 89 68 q 131 12 107 25 q 192 -1 156 -1 q 365 67 276 -1 q 507 239 453 136 l 535 217 q 376 15 479 92 q 161 -61 272 -61 q 25 -14 74 -61 q -24 107 -24 33 m 103 190 q 273 271 183 200 q 363 415 363 342 q 339 442 363 442 q 206 361 278 442 q 103 190 133 281 m 268 644 q 331 723 268 682 q 429 764 393 764 q 513 711 464 764 q 563 617 563 658 q 528 563 563 581 q 428 678 496 617 q 286 606 364 657 q 268 644 268 617 z "},"":{"ha":474,"x_min":-24,"x_max":588,"o":"m -24 107 q 94 367 -24 233 q 336 501 211 501 q 438 408 438 501 q 329 231 438 308 q 88 139 221 153 q 85 107 85 125 q 87 81 85 93 q 98 47 89 68 q 131 12 107 25 q 192 -1 156 -1 q 365 67 276 -1 q 507 239 453 136 l 535 217 q 376 15 479 92 q 161 -61 272 -61 q 25 -14 74 -61 q -24 107 -24 33 m 103 190 q 273 271 183 200 q 363 415 363 342 q 339 442 363 442 q 206 361 278 442 q 103 190 133 281 m 242 665 q 272 711 242 690 q 335 732 303 732 q 385 688 385 732 q 358 640 385 663 q 301 618 332 618 q 259 630 276 618 q 242 665 242 642 m 443 638 q 473 684 443 664 q 536 704 503 704 q 588 658 588 704 q 560 612 588 633 q 501 590 533 590 q 460 603 478 590 q 443 638 443 615 z "},"":{"ha":339,"x_min":-11,"x_max":396,"o":"m -11 82 q 18 228 -11 138 q 97 396 47 319 q 196 472 147 472 q 226 462 214 472 q 238 432 238 451 q 202 356 238 414 q 131 226 167 299 q 94 100 94 153 q 110 42 94 57 q 157 26 125 26 q 375 239 267 26 l 396 217 q 272 26 347 94 q 111 -42 197 -42 q 21 -7 53 -42 q -11 82 -11 28 m 69 707 q 84 747 71 733 q 114 761 97 761 q 210 697 153 761 q 267 604 267 633 q 257 576 267 592 q 232 554 247 561 q 69 707 164 635 z "},"":{"ha":339,"x_min":-11,"x_max":440,"o":"m -11 82 q 18 228 -11 138 q 97 396 47 319 q 196 472 147 472 q 226 462 214 472 q 238 432 238 451 q 202 356 238 414 q 131 226 167 299 q 94 100 94 153 q 110 42 94 57 q 157 26 125 26 q 375 239 267 26 l 396 217 q 272 26 347 94 q 111 -42 197 -42 q 21 -7 53 -42 q -11 82 -11 28 m 256 601 q 308 695 256 629 q 399 761 360 761 q 440 713 435 761 q 289 556 322 599 q 265 577 274 563 q 256 601 256 592 z "},"":{"ha":339,"x_min":-11,"x_max":396,"o":"m -11 82 q 18 228 -11 138 q 97 396 47 319 q 196 472 147 472 q 226 462 214 472 q 238 432 238 451 q 202 356 238 414 q 131 226 167 299 q 94 100 94 153 q 110 42 94 57 q 157 26 125 26 q 375 239 267 26 l 396 217 q 272 26 347 94 q 111 -42 197 -42 q 21 -7 53 -42 q -11 82 -11 28 m 101 631 q 164 709 101 668 q 263 750 226 750 q 347 697 297 750 q 396 603 396 644 q 361 549 396 567 q 261 664 329 603 q 119 592 197 643 q 101 631 101 601 z "},"":{"ha":339,"x_min":-11,"x_max":450,"o":"m -11 82 q 18 228 -11 138 q 97 396 47 319 q 196 472 147 472 q 226 462 214 472 q 238 432 238 451 q 202 356 238 414 q 131 226 167 299 q 94 100 94 153 q 110 42 94 57 q 157 26 125 26 q 375 239 267 26 l 396 217 q 272 26 347 94 q 111 -42 197 -42 q 21 -7 53 -42 q -11 82 -11 28 m 104 625 q 135 671 104 650 q 197 692 165 692 q 247 647 247 692 q 221 600 247 622 q 164 578 194 578 q 122 590 139 578 q 104 625 104 601 m 306 597 q 335 644 306 624 q 399 664 365 664 q 450 618 450 664 q 423 572 450 594 q 364 550 396 550 q 323 563 340 550 q 306 597 306 575 z "},"":{"ha":678,"x_min":-26,"x_max":746,"o":"m -26 81 q 31 260 -26 158 q 178 435 88 361 q 354 510 269 510 q 417 493 394 510 q 439 453 439 476 q 428 417 439 439 q 360 449 403 449 q 228 382 294 449 q 126 233 163 315 q 89 96 89 151 q 132 38 89 38 q 275 134 188 38 q 431 382 363 231 q 500 664 500 533 q 494 724 500 689 q 322 688 407 710 q 363 758 322 738 q 478 789 403 779 q 346 961 444 885 q 417 999 375 999 q 526 942 479 999 q 599 801 574 885 q 746 825 700 811 q 690 760 715 775 q 613 739 664 746 q 618 679 618 697 q 543 375 618 588 q 468 90 468 163 q 501 39 468 39 q 611 98 547 39 q 717 247 675 157 l 743 231 q 614 38 693 113 q 456 -36 535 -36 q 354 86 354 -36 q 367 189 354 119 q 221 24 299 90 q 82 -42 143 -42 q 6 -10 39 -42 q -26 81 -26 22 z "},"":{"ha":657,"x_min":-53,"x_max":717,"o":"m -53 19 q -28 82 -53 21 q 19 219 -3 143 q 42 349 42 296 q 114 382 72 382 q 163 340 163 382 q 139 217 163 303 q 401 406 281 406 q 488 367 457 406 q 518 276 518 329 q 491 163 518 231 q 464 68 464 96 q 497 28 464 28 q 597 91 543 28 q 693 240 650 154 l 717 221 q 468 -28 607 -28 q 386 -1 415 -28 q 357 68 357 25 q 376 158 357 96 q 396 251 396 221 q 347 306 396 306 q 265 274 308 306 q 174 182 221 243 q 103 83 128 121 l 38 -21 q -53 19 -22 -21 m 156 514 q 218 569 182 544 q 281 593 254 593 q 407 565 321 593 q 540 538 493 538 q 635 547 578 538 q 507 472 564 472 q 373 499 464 472 q 242 525 282 525 q 156 514 219 525 z "},"":{"ha":517,"x_min":-17,"x_max":574,"o":"m -17 86 q 36 265 -17 178 q 150 353 89 353 q 193 342 167 353 q 238 447 201 406 q 342 489 275 489 q 424 458 397 489 q 450 376 450 426 q 358 140 450 281 q 397 132 375 132 q 481 158 436 132 q 549 236 525 183 l 574 218 q 495 117 544 151 q 393 82 446 82 q 324 94 361 82 q 92 -44 208 -44 q 8 -7 33 -44 q -17 86 -17 31 m 94 90 q 142 26 94 26 q 275 125 192 26 q 192 329 196 194 q 130 233 165 315 q 94 90 94 150 m 271 306 q 282 233 271 274 q 311 169 293 192 q 392 376 392 285 q 353 438 392 438 q 297 399 324 438 q 271 306 271 360 m 315 715 q 330 756 317 742 q 360 769 343 769 q 456 706 399 769 q 513 613 513 642 q 503 585 513 600 q 478 563 493 569 q 315 715 410 643 z "},"":{"ha":517,"x_min":-17,"x_max":644,"o":"m -17 86 q 36 265 -17 178 q 150 353 89 353 q 193 342 167 353 q 238 447 201 406 q 342 489 275 489 q 424 458 397 489 q 450 376 450 426 q 358 140 450 281 q 397 132 375 132 q 481 158 436 132 q 549 236 525 183 l 574 218 q 495 117 544 151 q 393 82 446 82 q 324 94 361 82 q 92 -44 208 -44 q 8 -7 33 -44 q -17 86 -17 31 m 94 90 q 142 26 94 26 q 275 125 192 26 q 192 329 196 194 q 130 233 165 315 q 94 90 94 150 m 271 306 q 282 233 271 274 q 311 169 293 192 q 392 376 392 285 q 353 438 392 438 q 297 399 324 438 q 271 306 271 360 m 460 615 q 512 709 460 643 q 603 775 564 775 q 644 726 639 775 q 493 569 526 613 q 469 591 478 576 q 460 615 460 606 z "},"":{"ha":517,"x_min":-17,"x_max":574,"o":"m -17 86 q 36 265 -17 178 q 150 353 89 353 q 193 342 167 353 q 238 447 201 406 q 342 489 275 489 q 424 458 397 489 q 450 376 450 426 q 358 140 450 281 q 397 132 375 132 q 481 158 436 132 q 549 236 525 183 l 574 218 q 495 117 544 151 q 393 82 446 82 q 324 94 361 82 q 92 -44 208 -44 q 8 -7 33 -44 q -17 86 -17 31 m 94 90 q 142 26 94 26 q 275 125 192 26 q 192 329 196 194 q 130 233 165 315 q 94 90 94 150 m 271 306 q 282 233 271 274 q 311 169 293 192 q 392 376 392 285 q 353 438 392 438 q 297 399 324 438 q 271 306 271 360 m 274 644 q 336 723 274 682 q 435 764 399 764 q 519 711 469 764 q 568 617 568 658 q 533 563 568 581 q 433 678 501 617 q 292 606 369 657 q 274 644 274 617 z "},"":{"ha":517,"x_min":-17,"x_max":675,"o":"m -17 86 q 36 265 -17 178 q 150 353 89 353 q 193 342 167 353 q 238 447 201 406 q 342 489 275 489 q 424 458 397 489 q 450 376 450 426 q 358 140 450 281 q 397 132 375 132 q 481 158 436 132 q 549 236 525 183 l 574 218 q 495 117 544 151 q 393 82 446 82 q 324 94 361 82 q 92 -44 208 -44 q 8 -7 33 -44 q -17 86 -17 31 m 94 90 q 142 26 94 26 q 275 125 192 26 q 192 329 196 194 q 130 233 165 315 q 94 90 94 150 m 196 575 q 258 630 222 606 q 321 654 294 654 q 447 626 361 654 q 581 599 533 599 q 675 608 618 599 q 547 533 604 533 q 413 560 504 533 q 282 586 322 586 q 196 575 260 586 m 271 306 q 282 233 271 274 q 311 169 293 192 q 392 376 392 285 q 353 438 392 438 q 297 399 324 438 q 271 306 271 360 z "},"":{"ha":517,"x_min":-17,"x_max":608,"o":"m -17 86 q 36 265 -17 178 q 150 353 89 353 q 193 342 167 353 q 238 447 201 406 q 342 489 275 489 q 424 458 397 489 q 450 376 450 426 q 358 140 450 281 q 397 132 375 132 q 481 158 436 132 q 549 236 525 183 l 574 218 q 495 117 544 151 q 393 82 446 82 q 324 94 361 82 q 92 -44 208 -44 q 8 -7 33 -44 q -17 86 -17 31 m 94 90 q 142 26 94 26 q 275 125 192 26 q 192 329 196 194 q 130 233 165 315 q 94 90 94 150 m 263 651 q 293 697 263 676 q 356 718 324 718 q 406 674 406 718 q 379 626 406 649 q 322 604 353 604 q 280 616 297 604 q 263 651 263 628 m 271 306 q 282 233 271 274 q 311 169 293 192 q 392 376 392 285 q 353 438 392 438 q 297 399 324 438 q 271 306 271 360 m 464 624 q 494 670 464 650 q 557 690 524 690 q 608 644 608 690 q 581 598 608 619 q 522 576 554 576 q 481 589 499 576 q 464 624 464 601 z "},"":{"ha":682,"x_min":36,"x_max":594,"o":"m 36 161 q 124 233 51 217 q 326 249 196 249 q 594 235 424 249 q 489 190 547 203 q 317 178 431 178 q 36 161 167 178 m 200 25 q 229 70 200 50 q 290 90 258 90 q 338 47 338 90 q 312 1 338 24 q 257 -21 286 -21 q 217 -9 233 -21 q 200 25 200 3 m 281 371 q 310 416 281 396 q 371 436 339 436 q 418 393 418 436 q 393 347 418 369 q 338 325 368 325 q 297 337 314 325 q 281 371 281 349 z "},"":{"ha":517,"x_min":-62,"x_max":574,"o":"m -62 -67 q 8 -7 -32 -49 q -17 86 -17 28 q 36 265 -17 178 q 150 353 89 353 q 193 342 167 353 q 238 447 201 406 q 342 489 275 489 q 400 475 375 489 l 433 519 q 494 540 447 540 q 528 536 511 540 q 443 424 513 514 q 450 376 450 400 q 358 140 450 281 q 410 126 382 126 q 487 155 450 126 q 549 236 524 183 l 574 218 q 495 117 544 151 q 393 82 446 82 q 324 94 361 82 q 92 -44 208 -44 q 56 -39 68 -44 q -36 -71 7 -71 q -62 -67 -50 -71 m 94 86 q 208 225 179 186 q 192 329 194 267 q 130 232 165 315 q 94 86 94 149 m 129 28 q 142 26 133 26 q 275 125 192 26 q 239 165 250 147 q 140 40 150 53 l 129 28 m 271 303 l 369 433 q 353 438 364 438 q 297 398 324 438 q 271 303 271 358 m 285 222 q 311 169 293 189 q 390 358 382 269 l 285 222 z "},"":{"ha":613,"x_min":-1,"x_max":669,"o":"m -1 103 q 44 298 -1 182 q 125 414 90 414 q 190 378 154 414 q 130 254 161 335 q 99 115 99 174 q 140 32 99 32 q 229 101 176 32 q 319 240 282 169 q 386 379 356 311 q 469 332 469 365 q 447 280 469 329 q 403 167 425 231 q 382 64 382 103 q 419 15 382 15 q 533 77 465 15 q 649 238 600 139 l 669 221 q 539 33 622 108 q 378 -42 456 -42 q 333 -31 351 -42 q 304 -7 314 -21 q 289 31 294 7 q 283 71 283 54 q 282 114 282 88 q 229 38 251 67 q 172 -16 207 10 q 106 -42 138 -42 q 29 1 60 -42 q -1 103 -1 44 m 164 672 q 178 713 165 699 q 208 726 192 726 q 304 663 247 726 q 361 569 361 599 q 351 542 361 557 q 326 519 342 526 q 164 672 258 600 z "},"":{"ha":613,"x_min":-1,"x_max":669,"o":"m -1 103 q 44 298 -1 182 q 125 414 90 414 q 190 378 154 414 q 130 254 161 335 q 99 115 99 174 q 140 32 99 32 q 229 101 176 32 q 319 240 282 169 q 386 379 356 311 q 469 332 469 365 q 447 280 469 329 q 403 167 425 231 q 382 64 382 103 q 419 15 382 15 q 533 77 465 15 q 649 238 600 139 l 669 221 q 539 33 622 108 q 378 -42 456 -42 q 333 -31 351 -42 q 304 -7 314 -21 q 289 31 294 7 q 283 71 283 54 q 282 114 282 88 q 229 38 251 67 q 172 -16 207 10 q 106 -42 138 -42 q 29 1 60 -42 q -1 103 -1 44 m 300 524 q 352 617 300 551 q 443 683 404 683 q 485 635 479 683 q 333 478 367 521 q 309 499 318 485 q 300 524 300 514 z "},"":{"ha":613,"x_min":-1,"x_max":669,"o":"m -1 103 q 44 298 -1 182 q 125 414 90 414 q 190 378 154 414 q 130 254 161 335 q 99 115 99 174 q 140 32 99 32 q 229 101 176 32 q 319 240 282 169 q 386 379 356 311 q 469 332 469 365 q 447 280 469 329 q 403 167 425 231 q 382 64 382 103 q 419 15 382 15 q 533 77 465 15 q 649 238 600 139 l 669 221 q 539 33 622 108 q 378 -42 456 -42 q 333 -31 351 -42 q 304 -7 314 -21 q 289 31 294 7 q 283 71 283 54 q 282 114 282 88 q 229 38 251 67 q 172 -16 207 10 q 106 -42 138 -42 q 29 1 60 -42 q -1 103 -1 44 m 201 575 q 264 653 201 613 q 363 694 326 694 q 447 642 397 694 q 496 547 496 589 q 461 493 496 511 q 361 608 429 547 q 219 536 299 588 q 201 575 201 547 z "},"":{"ha":613,"x_min":-1,"x_max":669,"o":"m -1 103 q 44 298 -1 182 q 125 414 90 414 q 190 378 154 414 q 130 254 161 335 q 99 115 99 174 q 140 32 99 32 q 229 101 176 32 q 319 240 282 169 q 386 379 356 311 q 469 332 469 365 q 447 280 469 329 q 403 167 425 231 q 382 64 382 103 q 419 15 382 15 q 533 77 465 15 q 649 238 600 139 l 669 221 q 539 33 622 108 q 378 -42 456 -42 q 333 -31 351 -42 q 304 -7 314 -21 q 289 31 294 7 q 283 71 283 54 q 282 114 282 88 q 229 38 251 67 q 172 -16 207 10 q 106 -42 138 -42 q 29 1 60 -42 q -1 103 -1 44 m 186 583 q 217 629 186 608 q 279 650 247 650 q 329 606 329 650 q 303 558 329 581 q 246 536 276 536 q 203 548 221 536 q 186 583 186 560 m 388 556 q 417 602 388 582 q 481 622 447 622 q 532 576 532 622 q 505 531 532 553 q 446 508 478 508 q 405 521 422 508 q 388 556 388 533 z "},"":{"ha":556,"x_min":-28,"x_max":610,"o":"m -28 -299 q -8 -233 -28 -265 q 33 -179 11 -201 q 102 -130 56 -157 q 174 -92 149 -103 l 249 -54 q 315 163 272 6 q 115 11 208 11 q 33 39 69 11 q -3 126 -3 67 q 44 315 -3 201 q 125 429 92 429 q 167 415 139 429 q 200 383 194 400 q 142 263 174 347 q 111 129 111 178 q 151 78 111 78 q 335 246 229 78 q 341 277 336 249 q 351 325 346 306 q 376 363 357 344 q 424 382 396 382 q 468 376 429 382 q 435 225 467 342 q 363 -3 404 108 q 586 232 521 63 l 610 213 q 344 -56 557 39 q 67 -389 204 -389 q 0 -366 28 -389 q -28 -299 -28 -343 m 26 -299 q 53 -337 26 -337 q 129 -278 82 -337 q 222 -115 176 -219 q 26 -299 26 -214 m 329 553 q 381 647 329 581 q 472 713 433 713 q 514 664 508 713 q 363 507 396 550 q 338 528 347 514 q 329 553 329 543 z "},"":{"ha":576,"x_min":-128,"x_max":535,"o":"m -128 -325 q 0 156 -47 -58 q 81 694 47 369 q 84 714 82 708 q 94 723 86 719 q 118 726 101 726 q 176 709 158 726 q 193 646 193 692 q 149 314 193 578 q 376 475 251 475 q 490 429 444 475 q 535 308 535 383 q 435 73 535 189 q 193 -43 335 -43 q 124 -32 150 -43 q 97 -7 97 -21 q 143 8 97 8 q 338 99 251 8 q 424 293 424 190 q 347 392 424 392 q 216 320 282 392 q 121 179 150 249 q 7 -246 54 -103 q -75 -389 -40 -389 q -110 -362 -92 -389 q -128 -325 -128 -336 z "},"":{"ha":556,"x_min":-28,"x_max":610,"o":"m -28 -299 q -8 -233 -28 -265 q 33 -179 11 -201 q 102 -130 56 -157 q 174 -92 149 -103 l 249 -54 q 315 163 272 6 q 115 11 208 11 q 33 39 69 11 q -3 126 -3 67 q 44 315 -3 201 q 125 429 92 429 q 167 415 139 429 q 200 383 194 400 q 142 263 174 347 q 111 129 111 178 q 151 78 111 78 q 335 246 229 78 q 341 277 336 249 q 351 325 346 306 q 376 363 357 344 q 424 382 396 382 q 468 376 429 382 q 435 225 467 342 q 363 -3 404 108 q 586 232 521 63 l 610 213 q 344 -56 557 39 q 67 -389 204 -389 q 0 -366 28 -389 q -28 -299 -28 -343 m 26 -299 q 53 -337 26 -337 q 129 -278 82 -337 q 222 -115 176 -219 q 26 -299 26 -214 m 192 601 q 222 647 192 626 q 285 668 253 668 q 335 624 335 668 q 308 576 335 599 q 251 554 282 554 q 209 566 226 554 q 192 601 192 578 m 393 574 q 423 620 393 600 q 486 640 453 640 q 538 594 538 640 q 510 548 538 569 q 451 526 483 526 q 410 539 428 526 q 393 574 393 551 z "},"":{"ha":339,"x_min":-11,"x_max":396,"o":"m -11 82 q 18 228 -11 138 q 97 396 47 319 q 196 472 147 472 q 226 462 214 472 q 238 432 238 451 q 202 356 238 414 q 131 226 167 299 q 94 100 94 153 q 110 42 94 57 q 157 26 125 26 q 375 239 267 26 l 396 217 q 272 26 347 94 q 111 -42 197 -42 q 21 -7 53 -42 q -11 82 -11 28 z "},"":{"ha":1178,"x_min":44,"x_max":1219,"o":"m 44 228 q 132 583 44 403 q 359 881 219 763 q 638 999 499 999 q 729 963 703 999 q 475 845 603 963 q 268 554 347 728 q 189 219 189 381 q 237 24 189 101 q 381 -54 285 -54 q 581 65 488 -54 q 726 355 675 185 q 778 686 778 525 q 772 787 778 746 q 757 844 765 828 q 738 860 749 860 q 578 582 688 860 q 492 660 492 601 q 585 833 492 736 q 754 933 678 929 q 925 938 825 938 q 1219 911 1136 938 q 963 846 1197 846 q 916 847 950 846 q 858 849 882 849 q 872 731 872 800 q 861 517 872 608 q 1157 501 1060 514 q 944 415 1125 415 q 844 418 900 415 q 761 121 801 224 q 640 -40 721 18 q 851 -42 707 -42 q 935 -39 871 -42 q 1024 -36 1000 -36 q 1065 -40 1049 -36 q 915 -101 1050 -81 q 621 -122 779 -122 q 497 -122 582 -122 q 371 -121 413 -121 q 133 -33 222 -121 q 44 228 44 56 z "},"":{"ha":768,"x_min":-39,"x_max":829,"o":"m -39 57 q 19 236 -39 138 q 170 406 76 335 q 353 478 264 478 q 449 424 421 478 q 643 500 550 500 q 740 408 740 500 q 632 231 740 308 q 390 139 524 153 q 388 106 388 125 q 490 -1 388 -1 q 663 68 575 -1 q 806 239 751 138 l 829 218 q 671 16 772 93 q 458 -61 569 -61 q 335 -23 379 -61 q 282 74 292 15 q 78 -65 168 -65 q -6 -33 28 -65 q -39 57 -39 -1 m 74 49 q 103 4 74 4 q 206 63 139 4 q 283 154 272 121 q 186 308 189 189 q 106 174 139 249 q 74 49 74 100 m 256 288 q 299 211 256 243 q 411 385 339 314 q 356 425 394 425 q 286 381 317 425 q 256 288 256 336 m 404 190 q 580 288 499 225 q 661 415 661 350 q 638 438 661 438 q 506 359 578 438 q 404 190 435 281 z "},"":{"ha":788,"x_min":6,"x_max":813,"o":"m 6 133 q 69 281 6 236 q 219 326 133 326 q 129 133 129 232 q 187 6 129 58 q 347 -47 244 -47 q 526 3 449 -47 q 604 140 604 53 q 558 253 604 203 q 446 338 511 303 l 314 410 q 201 502 249 446 q 154 629 154 558 q 202 792 154 708 q 347 938 250 876 q 558 1000 443 1000 q 732 854 732 1000 q 698 697 732 783 q 621 543 664 610 q 560 614 560 556 q 599 755 560 653 q 639 894 639 857 q 623 934 639 921 q 565 947 607 947 q 352 850 443 947 q 261 661 261 753 q 307 563 261 607 q 418 487 353 519 q 548 417 483 454 q 658 319 613 379 q 704 179 704 258 q 588 -39 704 43 q 324 -121 472 -121 q 99 -54 192 -121 q 6 133 6 13 m 497 1258 q 535 1314 497 1296 q 642 1186 568 1250 q 783 1261 733 1218 q 813 1228 813 1251 q 746 1142 813 1188 q 642 1097 679 1097 q 551 1155 604 1097 q 497 1258 497 1213 z "},"":{"ha":488,"x_min":-28,"x_max":543,"o":"m -28 119 q -10 193 -28 168 q 34 229 7 218 q 64 243 61 240 q 199 433 153 335 l 199 447 q 261 549 199 549 q 294 521 292 549 q 291 501 294 517 q 288 471 288 485 q 328 320 288 433 q 368 140 368 207 q 363 83 368 117 q 526 240 457 107 l 543 228 q 350 42 486 63 q 278 -42 328 -14 q 163 -71 228 -71 q 19 -15 65 -71 q -28 119 -28 42 m 49 117 q 76 28 49 67 q 153 -10 104 -10 q 242 44 214 -10 q 142 87 188 56 q 68 154 96 118 q 49 117 49 150 m 89 204 q 156 131 113 164 q 253 86 199 99 q 257 129 257 99 q 251 194 257 158 q 242 249 246 229 q 225 317 238 269 q 210 378 213 365 q 89 204 142 260 m 168 747 q 206 803 168 785 q 313 675 239 739 q 454 750 404 707 q 483 717 483 740 q 417 631 483 676 q 313 586 350 586 q 222 644 275 586 q 168 747 168 701 z "},"":{"ha":981,"x_min":44,"x_max":1057,"o":"m 44 744 q 127 917 44 835 q 325 1000 210 1000 q 446 957 404 1000 q 488 847 488 914 q 449 660 488 799 q 399 407 399 481 q 497 276 399 276 q 663 372 586 276 q 788 610 739 467 l 815 701 l 849 808 q 881 901 863 853 q 921 974 900 949 q 963 1000 942 1000 q 1057 947 1004 1000 q 949 727 985 836 q 828 268 913 618 q 788 119 807 182 q 732 -19 768 57 q 653 -144 696 -96 q 544 -226 611 -193 q 397 -260 478 -260 q 253 -224 308 -260 q 197 -122 197 -187 q 225 -44 197 -78 q 303 1 253 -10 q 288 -93 288 -67 q 414 -211 288 -211 q 548 -165 492 -211 q 635 -41 604 -119 q 683 111 665 38 q 716 274 701 185 q 742 399 731 364 q 451 201 619 201 q 322 250 364 201 q 281 379 281 299 q 325 615 281 449 q 369 842 369 782 q 294 942 369 942 q 189 870 226 942 q 151 715 151 799 q 168 638 151 682 q 44 744 44 638 m 554 1190 q 585 1236 554 1215 q 647 1257 615 1257 q 697 1213 697 1257 q 671 1165 697 1188 q 614 1143 644 1143 q 572 1155 589 1143 q 554 1190 554 1167 m 756 1163 q 785 1209 756 1189 q 849 1229 815 1229 q 900 1183 900 1229 q 873 1137 900 1158 q 814 1115 846 1115 q 773 1128 790 1115 q 756 1163 756 1140 z "},"":{"ha":944,"x_min":-11,"x_max":996,"o":"m -11 46 q 17 103 -11 81 q 107 125 44 125 q 303 90 174 125 q 564 436 421 208 q 335 413 476 432 q 554 531 340 531 q 618 528 576 531 q 774 833 725 710 q 663 871 726 847 q 382 942 468 942 q 229 756 229 942 q 242 696 235 708 q 139 806 139 714 q 212 950 139 900 q 424 1000 285 1000 q 694 956 532 1000 q 926 913 857 913 q 996 918 972 913 q 908 850 947 869 q 736 518 842 694 q 894 507 875 507 q 826 452 861 463 q 689 439 792 442 q 396 65 539 203 q 728 -6 631 -6 q 853 25 790 -6 q 783 -88 822 -56 q 681 -121 743 -121 q 611 -114 647 -121 q 529 -90 575 -107 q 460 -64 483 -74 q 381 -29 436 -54 q 318 0 326 -4 q 133 -75 214 -75 q 29 -37 69 -75 q -11 46 -11 1 m 35 38 q 60 -8 35 14 q 122 -29 86 -29 q 238 32 157 -29 q 90 74 131 74 q 35 38 35 74 m 618 1258 q 656 1314 618 1296 q 763 1186 689 1250 q 904 1261 854 1218 q 933 1228 933 1251 q 867 1142 933 1188 q 763 1097 800 1097 q 672 1155 725 1097 q 618 1258 618 1213 z "},"":{"ha":460,"x_min":-94,"x_max":511,"o":"m -94 -308 q -76 -241 -94 -272 q -19 -179 -58 -210 q 57 -126 19 -149 l 154 -69 q 253 -8 215 -33 q 136 163 249 82 q 258 242 213 183 q 304 357 304 300 q 247 422 304 422 q 199 408 224 422 q 156 372 175 393 q 114 315 136 350 q 75 247 92 279 l 38 171 l 11 193 q 122 414 64 338 q 268 490 179 490 q 367 458 328 490 q 406 365 406 425 q 361 243 406 301 q 249 150 317 185 q 339 36 308 103 q 493 231 451 122 l 511 208 q 353 0 469 86 q 358 -46 358 -25 q 252 -280 358 -171 q 11 -389 146 -389 q -94 -308 -94 -389 m -46 -299 q -8 -336 -46 -336 q 144 -257 54 -336 q 250 -64 233 -178 q 168 -114 219 -83 l 85 -161 q 20 -204 54 -179 q -30 -252 -14 -229 q -46 -299 -46 -275 m 178 719 q 215 775 178 757 q 322 647 249 711 q 464 722 414 679 q 493 689 493 713 q 426 603 493 649 q 322 558 360 558 q 231 616 285 558 q 178 719 178 674 z "},"":{"ha":746,"x_min":-121,"x_max":785,"o":"m -121 -168 q -12 -49 -121 -83 q -28 -135 -28 -96 q 0 -221 -28 -186 q 69 -256 28 -256 q 126 -236 100 -256 q 174 -178 153 -217 q 212 -97 194 -140 q 247 9 229 -54 q 276 125 264 72 l 307 251 q 339 374 324 325 q 244 360 329 372 q 360 461 254 449 q 419 667 390 581 q 491 834 449 753 q 591 958 533 915 q 718 1000 649 1000 q 767 985 750 1000 q 785 929 785 971 q 695 699 785 829 q 479 464 606 568 q 557 459 501 464 q 644 454 613 454 q 729 465 692 454 q 606 376 667 376 q 530 378 586 376 q 428 379 474 379 q 371 144 394 235 q 320 -33 347 53 q 269 -166 293 -119 q 213 -249 244 -212 q 147 -299 182 -286 q 64 -312 111 -312 q -69 -272 -18 -312 q -121 -168 -121 -232 m 464 506 q 631 697 560 589 q 701 861 701 806 q 678 889 701 889 q 572 788 629 889 q 464 506 515 686 z "},"":{"ha":292,"x_min":-1,"x_max":293,"o":"m -1 644 q 61 723 -1 682 q 160 764 124 764 q 244 711 194 764 q 293 617 293 658 q 258 563 293 581 q 158 678 226 617 q 17 606 96 657 q -1 644 -1 617 z "},"":{"ha":292,"x_min":-18,"x_max":297,"o":"m -18 719 q 19 775 -18 757 q 126 647 53 711 q 268 722 218 679 q 297 689 297 713 q 231 603 297 649 q 126 558 164 558 q 35 616 89 558 q -18 719 -18 674 z "},"":{"ha":618,"x_min":176,"x_max":463,"o":"m 176 629 q 228 731 176 681 q 349 781 279 781 q 434 758 406 781 q 463 701 463 736 q 409 599 463 649 q 285 550 356 550 q 203 572 231 550 q 176 629 176 594 m 249 638 q 262 610 250 622 q 296 599 274 599 q 361 630 331 599 q 392 692 392 661 q 343 728 392 728 q 278 698 308 728 q 249 638 249 668 z "},"":{"ha":394,"x_min":-25,"x_max":454,"o":"m -25 575 q 38 630 1 606 q 100 654 74 654 q 226 626 140 654 q 360 599 313 599 q 454 608 397 599 q 326 533 383 533 q 192 560 283 533 q 61 586 101 586 q -25 575 39 586 z "},"":{"ha":1049,"x_min":69,"x_max":914,"o":"m 69 146 q 155 251 81 225 q 426 276 229 276 q 708 264 569 276 q 914 250 846 251 q 674 167 786 167 q 474 172 564 167 q 354 178 383 178 q 267 177 300 178 q 208 173 235 176 q 168 167 181 169 q 124 158 156 165 q 69 146 93 150 z "},"":{"ha":1274,"x_min":88,"x_max":1140,"o":"m 88 146 q 208 249 99 222 q 529 276 317 276 q 878 264 675 276 q 1140 250 1081 251 q 904 164 1008 164 q 628 171 794 164 q 433 178 463 178 q 243 172 306 178 q 88 146 181 165 z "},"":{"ha":254,"x_min":204,"x_max":354,"o":"m 221 913 q 213 926 221 913 q 204 957 204 939 q 221 990 204 975 q 257 1006 238 1006 q 309 929 264 982 q 354 853 354 876 q 307 796 354 822 q 267 849 297 811 q 221 913 238 886 z "},"":{"ha":228,"x_min":199,"x_max":349,"o":"m 199 850 q 244 926 199 874 q 296 1003 289 979 q 332 988 315 1003 q 349 954 349 972 q 332 910 349 936 q 285 846 315 883 q 246 793 256 808 q 199 850 199 819 z "},"":{"ha":300,"x_min":7,"x_max":139,"o":"m 7 -61 q 35 33 7 -17 q 94 82 63 82 q 126 68 113 82 q 139 36 139 54 q 118 10 128 24 q 103 -11 108 -3 q 87 -37 97 -19 q 74 -60 76 -56 q 60 -92 72 -65 q 44 -122 47 -118 q 7 -61 7 -100 z "},"":{"ha":426,"x_min":204,"x_max":526,"o":"m 221 913 q 213 926 221 913 q 204 957 204 939 q 221 990 204 975 q 257 1006 238 1006 q 309 929 264 982 q 354 853 354 876 q 307 796 354 822 q 267 849 297 811 q 221 913 238 886 m 393 913 q 385 926 393 913 q 376 957 376 939 q 393 990 376 975 q 429 1006 410 1006 q 481 929 436 982 q 526 853 526 876 q 479 796 526 822 q 440 849 469 811 q 393 913 410 886 z "},"":{"ha":403,"x_min":200,"x_max":522,"o":"m 200 853 q 245 929 200 876 q 297 1006 290 982 q 333 990 317 1006 q 350 957 350 975 q 333 913 350 939 q 287 849 317 886 q 247 796 257 811 q 200 853 200 824 m 372 853 q 417 929 372 876 q 469 1006 463 982 q 506 990 489 1006 q 522 957 522 975 q 506 913 522 939 q 459 849 489 886 q 419 796 429 811 q 372 853 372 824 z "},"":{"ha":453,"x_min":7,"x_max":292,"o":"m 7 -61 q 35 33 7 -17 q 94 82 63 82 q 126 68 113 82 q 139 36 139 54 q 118 10 128 24 q 103 -11 108 -3 q 87 -37 97 -19 q 74 -60 76 -56 q 60 -92 72 -65 q 44 -122 47 -118 q 7 -61 7 -100 m 160 -61 q 188 33 160 -17 q 247 82 215 82 q 278 68 265 82 q 292 36 292 54 q 271 10 281 24 q 256 -11 261 -3 q 240 -37 250 -19 q 227 -60 229 -56 q 213 -92 225 -65 q 197 -122 200 -118 q 160 -61 160 -100 z "},"":{"ha":563,"x_min":108,"x_max":572,"o":"m 108 410 q 137 480 110 453 q 190 515 164 507 q 238 522 217 522 q 263 522 246 522 q 288 521 279 521 q 464 814 399 814 q 488 801 476 814 q 500 772 500 789 q 406 513 500 731 q 572 500 533 500 q 531 456 551 471 q 498 438 510 440 q 468 436 486 436 q 369 435 404 436 q 133 -37 225 111 l 117 -32 q 134 83 118 17 q 166 195 150 149 q 211 321 182 242 l 251 429 q 108 410 176 422 z "},"":{"ha":624,"x_min":74,"x_max":639,"o":"m 74 317 q 278 433 78 431 l 299 485 q 164 474 235 483 l 104 465 q 335 582 110 582 q 499 839 438 839 q 522 826 511 839 q 533 797 533 814 q 454 572 533 754 q 639 550 579 550 q 536 486 594 486 q 469 485 506 486 q 417 485 432 485 l 389 428 q 487 415 417 425 q 608 403 557 404 q 504 339 563 339 q 413 338 463 339 q 349 338 364 338 q 151 -37 229 88 q 173 110 151 29 q 243 336 194 190 q 74 317 168 333 z "},"":{"ha":378,"x_min":85,"x_max":260,"o":"m 85 219 q 114 286 85 253 q 179 319 143 319 q 237 298 214 319 q 260 246 260 276 q 224 187 260 217 q 151 157 189 157 q 104 174 124 157 q 85 219 85 192 z "},"":{"ha":763,"x_min":39,"x_max":599,"o":"m 39 39 q 69 88 39 63 q 126 113 99 113 q 172 69 172 113 q 152 17 172 47 q 100 -14 132 -14 q 54 2 69 -14 q 39 39 39 18 m 246 39 q 276 88 246 63 q 333 113 306 113 q 379 69 379 113 q 359 17 379 47 q 307 -14 339 -14 q 261 2 276 -14 q 246 39 246 18 m 465 39 q 495 88 465 63 q 553 113 525 113 q 599 69 599 113 q 578 17 599 47 q 526 -14 558 -14 q 481 2 496 -14 q 465 39 465 18 z "},"":{"ha":1429,"x_min":124,"x_max":1378,"o":"m 124 -121 q 447 357 225 -22 q 743 932 668 736 q 793 977 751 954 q 871 1000 835 1000 q 683 606 854 932 q 418 135 511 279 q 267 -56 336 8 q 124 -121 199 -121 m 153 629 q 213 832 153 733 q 365 931 274 931 q 463 889 425 931 q 500 779 500 847 q 438 574 500 678 q 283 471 375 471 q 187 517 221 471 q 153 629 153 563 m 251 626 q 292 543 251 543 q 372 624 338 543 q 407 786 407 706 q 368 861 407 861 q 284 781 317 861 q 251 626 251 701 m 632 156 q 692 359 632 261 q 844 457 751 457 q 941 415 904 457 q 978 306 978 374 q 953 174 978 243 q 876 51 928 104 q 763 -1 825 -1 q 665 44 699 -1 q 632 156 632 89 m 729 150 q 769 71 729 71 q 851 151 815 71 q 886 313 886 232 q 846 389 886 389 q 761 308 793 389 q 729 150 729 226 m 1032 156 q 1092 359 1032 261 q 1244 457 1151 457 q 1341 415 1304 457 q 1378 306 1378 374 q 1353 174 1378 243 q 1276 51 1328 104 q 1163 -1 1225 -1 q 1065 44 1099 -1 q 1032 156 1032 89 m 1129 150 q 1169 71 1129 71 q 1251 151 1215 71 q 1286 313 1286 232 q 1246 389 1286 389 q 1161 308 1193 389 q 1129 150 1129 226 z "},"":{"ha":450,"x_min":35,"x_max":332,"o":"m 35 219 q 183 315 106 247 q 307 446 260 382 q 326 399 326 422 q 106 204 326 317 q 332 93 189 144 q 271 57 299 57 q 134 116 219 57 q 35 219 49 175 z "},"":{"ha":469,"x_min":93,"x_max":390,"o":"m 93 93 q 319 204 236 144 q 99 396 99 317 q 118 446 99 421 q 242 315 165 382 q 390 219 319 247 q 291 116 376 175 q 154 57 206 57 q 93 93 126 57 z "},"":{"ha":442,"x_min":125,"x_max":501,"o":"m 125 636 q 142 689 125 675 q 444 1000 375 885 q 474 971 472 997 q 466 939 474 965 q 443 850 458 913 q 414 710 428 788 l 428 710 q 501 721 432 710 q 403 649 447 649 q 379 431 379 478 q 292 479 292 435 q 321 650 292 507 q 275 651 306 651 q 125 636 186 651 m 239 714 q 280 713 247 714 q 336 713 313 713 q 361 826 351 796 l 322 792 q 275 748 299 768 q 239 714 251 728 z "},"":{"ha":1013,"x_min":42,"x_max":953,"o":"m 42 213 q 200 322 43 313 l 207 368 q 67 350 142 365 q 231 460 67 446 q 462 838 301 678 q 785 999 622 999 q 929 871 929 999 q 874 677 929 783 q 758 571 818 571 q 701 614 724 571 q 803 752 754 672 q 853 885 853 832 q 790 938 853 938 q 560 793 681 938 q 376 458 440 649 l 479 449 q 626 438 569 439 q 551 383 593 393 q 350 371 508 374 l 340 324 q 460 312 378 321 q 600 301 543 303 q 525 248 567 257 q 329 236 483 239 q 335 130 329 175 q 358 40 342 85 q 413 -30 375 -6 q 507 -54 450 -54 q 739 35 619 -54 q 915 243 858 124 l 953 219 q 747 -24 875 74 q 474 -121 618 -121 q 343 -92 399 -121 q 256 -15 288 -64 q 208 95 224 35 q 190 228 192 156 q 42 213 67 217 z "},"":{"ha":807,"x_min":206,"x_max":865,"o":"m 206 928 q 278 982 207 969 q 486 994 349 994 l 596 994 q 651 963 633 994 q 669 847 669 932 q 664 735 669 801 q 715 838 682 765 q 773 949 747 911 q 826 988 799 988 q 865 972 840 988 q 796 635 796 796 q 808 544 796 578 q 742 560 758 544 q 725 621 725 576 q 750 803 725 683 q 703 699 731 763 q 662 612 676 635 q 629 589 647 589 q 596 671 596 589 q 599 751 596 686 q 601 847 601 817 q 484 598 517 651 q 407 544 451 544 l 493 729 q 589 940 557 865 q 511 942 565 942 q 413 938 450 942 q 376 839 407 921 q 328 694 346 757 q 310 583 310 631 q 315 544 310 560 q 232 592 232 544 q 271 733 232 622 q 353 936 310 844 q 206 928 325 936 z "},"":{"ha":458,"x_min":0,"x_max":458,"o":"m 0 458 l 458 458 l 458 0 l 0 0 l 0 458 z "},"":{"ha":797,"x_min":-92,"x_max":861,"o":"m -92 -258 q -31 57 -92 -153 q 116 476 29 267 q 314 843 203 686 q 514 1000 425 1000 q 572 931 572 1000 q 457 663 572 815 q 193 410 342 510 q 174 363 174 364 q 206 326 193 353 q 329 217 243 217 q 503 303 417 217 q 576 428 536 379 q 657 478 617 478 q 699 438 699 478 q 663 360 699 418 q 590 228 626 301 q 554 101 554 156 q 569 42 554 58 q 619 26 585 26 q 839 243 726 26 l 861 222 q 736 28 814 99 q 571 -42 658 -42 q 480 -6 513 -42 q 447 83 447 29 q 471 215 447 136 q 306 161 388 161 q 215 178 265 161 q 222 106 222 119 q 192 -126 222 -11 q 109 -315 161 -240 q -1 -389 57 -389 q -63 -360 -35 -389 q -92 -258 -92 -331 m 15 -240 q 36 -303 15 -303 q 121 -165 75 -303 q 167 99 167 -28 q 133 246 167 197 q 15 -240 15 -85 m 233 508 q 424 725 349 615 q 500 878 500 835 q 489 888 500 888 q 372 783 440 888 q 233 508 304 678 m 664 640 q 700 697 664 672 q 776 722 736 722 q 833 669 833 722 q 803 613 833 639 q 733 586 772 586 q 684 600 704 586 q 664 640 664 614 z "},"":{"ha":796,"x_min":-92,"x_max":961,"o":"m -92 -258 q -31 57 -92 -153 q 116 476 29 267 q 314 843 203 686 q 514 1000 425 1000 q 572 931 572 1000 q 457 663 572 815 q 193 410 342 510 q 185 390 192 406 q 174 364 178 375 q 206 317 201 347 q 333 186 228 186 q 474 229 397 186 q 592 558 504 372 q 769 872 679 743 q 901 1000 858 1000 q 943 962 925 1000 q 961 889 961 924 q 848 576 961 783 q 586 251 735 369 q 569 113 569 168 q 628 17 569 17 q 736 83 679 17 q 833 239 793 149 l 868 219 q 586 -47 740 -47 q 458 121 458 -47 q 463 169 458 142 q 314 133 388 133 q 219 154 267 133 q 222 106 219 136 q 192 -126 222 -11 q 109 -315 161 -240 q -1 -389 57 -389 q -63 -360 -35 -389 q -92 -258 -92 -331 m 15 -243 q 36 -303 15 -303 q 121 -162 76 -303 q 165 103 165 -22 q 131 239 165 193 q 15 -243 15 -100 m 233 508 q 424 725 349 615 q 500 878 500 835 q 489 888 500 888 q 372 783 440 888 q 233 508 304 678 m 610 331 q 803 598 710 439 q 899 869 897 757 q 827 790 881 869 q 710 579 774 710 q 610 331 647 449 z "}}}
